ISO-10303-21;
HEADER;
FILE_DESCRIPTION(('STEP AP242'),
    '1');
FILE_NAME('рука',
    '2025-02-09T16:52:14',
    ('Пользователь Windows'),
    (''),
    'C3D Converter',
    'C3D Toolkit',
    '');
/**/
FILE_SCHEMA(('AP242_MANAGED_MODEL_BASED_3D_ENGINEERING_MIM_LF { 1 0 10303 442 1 1 4 }'));
ENDSEC;

DATA;
#1=PRODUCT_DEFINITION('','UNSPECIFIED',#28,#31);
#2=SHAPE_DEFINITION_REPRESENTATION(#26,#3);
#3=SHAPE_REPRESENTATION('NONE',(#4),#8);
#4=AXIS2_PLACEMENT_3D('',#5,#6,#7);
#5=CARTESIAN_POINT('',(0.,0.,0.));
#6=DIRECTION('',(0.,0.,1.));
#7=DIRECTION('',(1.,0.,0.));
#8=(GEOMETRIC_REPRESENTATION_CONTEXT(3)GLOBAL_UNCERTAINTY_ASSIGNED_CONTEXT((#10))
GLOBAL_UNIT_ASSIGNED_CONTEXT((#9,#11,#12))REPRESENTATION_CONTEXT('NONE','NONE'));
#9=(LENGTH_UNIT()NAMED_UNIT(*)SI_UNIT(.MILLI.,.METRE.));
#10=UNCERTAINTY_MEASURE_WITH_UNIT(LENGTH_MEASURE(1.E-5),#9,'NONE','NONE');
#11=(NAMED_UNIT(*)PLANE_ANGLE_UNIT()SI_UNIT($,.RADIAN.));
#12=(NAMED_UNIT(*)SI_UNIT($,.STERADIAN.)SOLID_ANGLE_UNIT());
#13=MANIFOLD_SOLID_BREP('',#14);
#14=CLOSED_SHELL('',(#48,#57,#66,#75,#84,#93,#102,#111));
#15=COLOUR_RGB('',0.564705882352941,0.564705882352941,0.564705882352941);
#16=FILL_AREA_STYLE_COLOUR('',#15);
#17=FILL_AREA_STYLE($,(#16));
#18=SURFACE_STYLE_FILL_AREA(#17);
#19=SURFACE_SIDE_STYLE('',(#18));
#20=SURFACE_STYLE_USAGE(.BOTH.,#19);
#21=PRESENTATION_STYLE_ASSIGNMENT((#20));
#22=MECHANICAL_DESIGN_GEOMETRIC_PRESENTATION_REPRESENTATION('NONE',(#23,#56,#65,
#74,#83,#92,#101,#110,#119),#8);
#23=STYLED_ITEM('',(#21),#13);
#24=ADVANCED_BREP_SHAPE_REPRESENTATION('NONE',(#13),#8);
#25=SHAPE_REPRESENTATION_RELATIONSHIP('','',#3,#24);
#26=PRODUCT_DEFINITION_SHAPE('NONE','NONE',#1);
#27=MECHANICAL_CONTEXT('NONE',#32,'mechanical');
#28=PRODUCT_DEFINITION_FORMATION_WITH_SPECIFIED_SOURCE('ANY','UNSPECIFIED',#29,.NOT_KNOWN.);
#29=PRODUCT('','\X2\04400443043A0430\X0\','NONE',(#27));
#30=PRODUCT_RELATED_PRODUCT_CATEGORY('detail','',(#29));
#31=DESIGN_CONTEXT('detailed design',#32,'design');
#32=APPLICATION_CONTEXT('configuration controlled 3d designs of mechanical parts and assemblies');
#33=APPLICATION_PROTOCOL_DEFINITION('international standard','config_control_design',
1994,#32);
#34=CC_DESIGN_DATE_AND_TIME_ASSIGNMENT(#35,#39,(#1));
#35=DATE_AND_TIME(#36,#37);
#36=CALENDAR_DATE(0,1,1);
#37=LOCAL_TIME(0,0,0.,#38);
#38=COORDINATED_UNIVERSAL_TIME_OFFSET(0,0,.AHEAD.);
#39=DATE_TIME_ROLE('creation_date');
#40=CC_DESIGN_APPROVAL(#41,(#1));
#41=APPROVAL(#42,'UNSPECIFIED');
#42=APPROVAL_STATUS('not_yet_approved');
#43=APPROVAL_DATE_TIME(#44,#41);
#44=DATE_AND_TIME(#45,#46);
#45=CALENDAR_DATE(0,1,1);
#46=LOCAL_TIME(0,0,0.,#47);
#47=COORDINATED_UNIVERSAL_TIME_OFFSET(0,0,.AHEAD.);
#48=ADVANCED_FACE('',(#120,#122,#124,#126,#128,#130),#132,.T.);
#49=COLOUR_RGB('',0.564705882352941,0.564705882352941,0.564705882352941);
#50=FILL_AREA_STYLE_COLOUR('',#49);
#51=FILL_AREA_STYLE($,(#50));
#52=SURFACE_STYLE_FILL_AREA(#51);
#53=SURFACE_SIDE_STYLE('',(#52));
#54=SURFACE_STYLE_USAGE(.BOTH.,#53);
#55=PRESENTATION_STYLE_ASSIGNMENT((#54));
#56=STYLED_ITEM('',(#55),#48);
#57=ADVANCED_FACE('',(#137,#139,#141,#143,#145,#147),#149,.F.);
#58=COLOUR_RGB('',0.564705882352941,0.564705882352941,0.564705882352941);
#59=FILL_AREA_STYLE_COLOUR('',#58);
#60=FILL_AREA_STYLE($,(#59));
#61=SURFACE_STYLE_FILL_AREA(#60);
#62=SURFACE_SIDE_STYLE('',(#61));
#63=SURFACE_STYLE_USAGE(.BOTH.,#62);
#64=PRESENTATION_STYLE_ASSIGNMENT((#63));
#65=STYLED_ITEM('',(#64),#57);
#66=ADVANCED_FACE('',(#154,#156),#158,.F.);
#67=COLOUR_RGB('',0.564705882352941,0.564705882352941,0.564705882352941);
#68=FILL_AREA_STYLE_COLOUR('',#67);
#69=FILL_AREA_STYLE($,(#68));
#70=SURFACE_STYLE_FILL_AREA(#69);
#71=SURFACE_SIDE_STYLE('',(#70));
#72=SURFACE_STYLE_USAGE(.BOTH.,#71);
#73=PRESENTATION_STYLE_ASSIGNMENT((#72));
#74=STYLED_ITEM('',(#73),#66);
#75=ADVANCED_FACE('',(#163,#165),#167,.F.);
#76=COLOUR_RGB('',0.564705882352941,0.564705882352941,0.564705882352941);
#77=FILL_AREA_STYLE_COLOUR('',#76);
#78=FILL_AREA_STYLE($,(#77));
#79=SURFACE_STYLE_FILL_AREA(#78);
#80=SURFACE_SIDE_STYLE('',(#79));
#81=SURFACE_STYLE_USAGE(.BOTH.,#80);
#82=PRESENTATION_STYLE_ASSIGNMENT((#81));
#83=STYLED_ITEM('',(#82),#75);
#84=ADVANCED_FACE('',(#172,#174),#176,.T.);
#85=COLOUR_RGB('',0.564705882352941,0.564705882352941,0.564705882352941);
#86=FILL_AREA_STYLE_COLOUR('',#85);
#87=FILL_AREA_STYLE($,(#86));
#88=SURFACE_STYLE_FILL_AREA(#87);
#89=SURFACE_SIDE_STYLE('',(#88));
#90=SURFACE_STYLE_USAGE(.BOTH.,#89);
#91=PRESENTATION_STYLE_ASSIGNMENT((#90));
#92=STYLED_ITEM('',(#91),#84);
#93=ADVANCED_FACE('',(#181,#183),#185,.F.);
#94=COLOUR_RGB('',0.564705882352941,0.564705882352941,0.564705882352941);
#95=FILL_AREA_STYLE_COLOUR('',#94);
#96=FILL_AREA_STYLE($,(#95));
#97=SURFACE_STYLE_FILL_AREA(#96);
#98=SURFACE_SIDE_STYLE('',(#97));
#99=SURFACE_STYLE_USAGE(.BOTH.,#98);
#100=PRESENTATION_STYLE_ASSIGNMENT((#99));
#101=STYLED_ITEM('',(#100),#93);
#102=ADVANCED_FACE('',(#190,#192),#194,.F.);
#103=COLOUR_RGB('',0.564705882352941,0.564705882352941,0.564705882352941);
#104=FILL_AREA_STYLE_COLOUR('',#103);
#105=FILL_AREA_STYLE($,(#104));
#106=SURFACE_STYLE_FILL_AREA(#105);
#107=SURFACE_SIDE_STYLE('',(#106));
#108=SURFACE_STYLE_USAGE(.BOTH.,#107);
#109=PRESENTATION_STYLE_ASSIGNMENT((#108));
#110=STYLED_ITEM('',(#109),#102);
#111=ADVANCED_FACE('',(#199,#201),#203,.F.);
#112=COLOUR_RGB('',0.564705882352941,0.564705882352941,0.564705882352941);
#113=FILL_AREA_STYLE_COLOUR('',#112);
#114=FILL_AREA_STYLE($,(#113));
#115=SURFACE_STYLE_FILL_AREA(#114);
#116=SURFACE_SIDE_STYLE('',(#115));
#117=SURFACE_STYLE_USAGE(.BOTH.,#116);
#118=PRESENTATION_STYLE_ASSIGNMENT((#117));
#119=STYLED_ITEM('',(#118),#111);
#120=FACE_OUTER_BOUND('',#121,.T.);
#121=EDGE_LOOP('',(#208));
#122=FACE_BOUND('',#123,.T.);
#123=EDGE_LOOP('',(#209,#210));
#124=FACE_OUTER_BOUND('',#125,.T.);
#125=EDGE_LOOP('',(#211));
#126=FACE_BOUND('',#127,.T.);
#127=EDGE_LOOP('',(#212));
#128=FACE_BOUND('',#129,.T.);
#129=EDGE_LOOP('',(#213));
#130=FACE_BOUND('',#131,.T.);
#131=EDGE_LOOP('',(#214));
#132=CYLINDRICAL_SURFACE('',#133,45.);
#133=AXIS2_PLACEMENT_3D('',#134,#135,#136);
#134=CARTESIAN_POINT('',(-5.,0.,9.18485099360515E-16));
#135=DIRECTION('',(1.,0.,-1.83697019872103E-16));
#136=DIRECTION('',(1.12481983699639E-32,1.,6.12323399573677E-17));
#137=FACE_OUTER_BOUND('',#138,.T.);
#138=EDGE_LOOP('',(#215));
#139=FACE_BOUND('',#140,.T.);
#140=EDGE_LOOP('',(#216,#217));
#141=FACE_OUTER_BOUND('',#142,.T.);
#142=EDGE_LOOP('',(#218));
#143=FACE_BOUND('',#144,.T.);
#144=EDGE_LOOP('',(#219));
#145=FACE_BOUND('',#146,.T.);
#146=EDGE_LOOP('',(#220));
#147=FACE_BOUND('',#148,.T.);
#148=EDGE_LOOP('',(#221));
#149=CYLINDRICAL_SURFACE('',#150,40.);
#150=AXIS2_PLACEMENT_3D('',#151,#152,#153);
#151=CARTESIAN_POINT('',(-5.,0.,9.18485099360515E-16));
#152=DIRECTION('',(1.,0.,-1.83697019872103E-16));
#153=DIRECTION('',(1.12481983699639E-32,1.,6.12323399573677E-17));
#154=FACE_BOUND('',#155,.T.);
#155=EDGE_LOOP('',(#222,#223));
#156=FACE_BOUND('',#157,.T.);
#157=EDGE_LOOP('',(#224,#225));
#158=CYLINDRICAL_SURFACE('',#159,1.55);
#159=AXIS2_PLACEMENT_3D('',#160,#161,#162);
#160=CARTESIAN_POINT('',(0.,-45.,-2.75545529808154E-15));
#161=DIRECTION('',(0.,1.,6.12323399573677E-17));
#162=DIRECTION('',(-1.,7.49879891330929E-33,-1.22464679914735E-16));
#163=FACE_BOUND('',#164,.T.);
#164=EDGE_LOOP('',(#226));
#165=FACE_BOUND('',#166,.T.);
#166=EDGE_LOOP('',(#227));
#167=PLANE('',#168);
#168=AXIS2_PLACEMENT_3D('',#169,#170,#171);
#169=CARTESIAN_POINT('',(-5.,0.,9.18485099360515E-16));
#170=DIRECTION('',(1.,0.,-1.83697019872103E-16));
#171=DIRECTION('',(1.12481983699639E-32,1.,6.12323399573677E-17));
#172=FACE_BOUND('',#173,.T.);
#173=EDGE_LOOP('',(#228));
#174=FACE_BOUND('',#175,.T.);
#175=EDGE_LOOP('',(#229));
#176=PLANE('',#177);
#177=AXIS2_PLACEMENT_3D('',#178,#179,#180);
#178=CARTESIAN_POINT('',(46.,0.,-8.45006291411674E-15));
#179=DIRECTION('',(1.,0.,-1.83697019872103E-16));
#180=DIRECTION('',(1.12481983699639E-32,1.,6.12323399573677E-17));
#181=FACE_OUTER_BOUND('',#182,.T.);
#182=EDGE_LOOP('',(#230));
#183=FACE_OUTER_BOUND('',#184,.T.);
#184=EDGE_LOOP('',(#231));
#185=CYLINDRICAL_SURFACE('',#186,1.55);
#186=AXIS2_PLACEMENT_3D('',#187,#188,#189);
#187=CARTESIAN_POINT('',(0.,0.,-45.));
#188=DIRECTION('',(0.,0.,1.));
#189=DIRECTION('',(-1.,1.22464679914735E-16,0.));
#190=FACE_OUTER_BOUND('',#191,.T.);
#191=EDGE_LOOP('',(#232));
#192=FACE_OUTER_BOUND('',#193,.T.);
#193=EDGE_LOOP('',(#233));
#194=CYLINDRICAL_SURFACE('',#195,1.55);
#195=AXIS2_PLACEMENT_3D('',#196,#197,#198);
#196=CARTESIAN_POINT('',(0.,0.,-45.));
#197=DIRECTION('',(0.,0.,1.));
#198=DIRECTION('',(-1.,1.22464679914735E-16,0.));
#199=FACE_OUTER_BOUND('',#200,.T.);
#200=EDGE_LOOP('',(#234));
#201=FACE_OUTER_BOUND('',#202,.T.);
#202=EDGE_LOOP('',(#235));
#203=CYLINDRICAL_SURFACE('',#204,1.55);
#204=AXIS2_PLACEMENT_3D('',#205,#206,#207);
#205=CARTESIAN_POINT('',(0.,-45.,-2.75545529808154E-15));
#206=DIRECTION('',(0.,1.,6.12323399573677E-17));
#207=DIRECTION('',(-1.,7.49879891330929E-33,-1.22464679914735E-16));
#208=ORIENTED_EDGE('',*,*,#236,.F.);
#209=ORIENTED_EDGE('',*,*,#237,.T.);
#210=ORIENTED_EDGE('',*,*,#238,.T.);
#211=ORIENTED_EDGE('',*,*,#239,.T.);
#212=ORIENTED_EDGE('',*,*,#240,.T.);
#213=ORIENTED_EDGE('',*,*,#241,.T.);
#214=ORIENTED_EDGE('',*,*,#242,.T.);
#215=ORIENTED_EDGE('',*,*,#243,.F.);
#216=ORIENTED_EDGE('',*,*,#244,.T.);
#217=ORIENTED_EDGE('',*,*,#245,.T.);
#218=ORIENTED_EDGE('',*,*,#246,.F.);
#219=ORIENTED_EDGE('',*,*,#247,.T.);
#220=ORIENTED_EDGE('',*,*,#248,.T.);
#221=ORIENTED_EDGE('',*,*,#249,.T.);
#222=ORIENTED_EDGE('',*,*,#238,.F.);
#223=ORIENTED_EDGE('',*,*,#237,.F.);
#224=ORIENTED_EDGE('',*,*,#245,.F.);
#225=ORIENTED_EDGE('',*,*,#244,.F.);
#226=ORIENTED_EDGE('',*,*,#239,.F.);
#227=ORIENTED_EDGE('',*,*,#246,.T.);
#228=ORIENTED_EDGE('',*,*,#236,.T.);
#229=ORIENTED_EDGE('',*,*,#243,.T.);
#230=ORIENTED_EDGE('',*,*,#240,.F.);
#231=ORIENTED_EDGE('',*,*,#247,.F.);
#232=ORIENTED_EDGE('',*,*,#248,.F.);
#233=ORIENTED_EDGE('',*,*,#241,.F.);
#234=ORIENTED_EDGE('',*,*,#249,.F.);
#235=ORIENTED_EDGE('',*,*,#242,.F.);
#236=EDGE_CURVE('',#250,#250,#251,.T.);
#237=EDGE_CURVE('',#252,#253,#254,.F.);
#238=EDGE_CURVE('',#253,#252,#255,.F.);
#239=EDGE_CURVE('',#256,#256,#257,.T.);
#240=EDGE_CURVE('',#258,#258,#259,.F.);
#241=EDGE_CURVE('',#260,#260,#261,.F.);
#242=EDGE_CURVE('',#262,#262,#263,.F.);
#243=EDGE_CURVE('',#264,#264,#265,.F.);
#244=EDGE_CURVE('',#266,#267,#268,.F.);
#245=EDGE_CURVE('',#267,#266,#269,.T.);
#246=EDGE_CURVE('',#270,#270,#271,.T.);
#247=EDGE_CURVE('',#272,#272,#273,.T.);
#248=EDGE_CURVE('',#274,#274,#275,.T.);
#249=EDGE_CURVE('',#276,#276,#277,.T.);
#250=VERTEX_POINT('',#278);
#251=CIRCLE('',#279,45.);
#252=VERTEX_POINT('',#283);
#253=VERTEX_POINT('',#284);
#254=B_SPLINE_CURVE_WITH_KNOTS('',3,
(#285,#286,#287,#288,#289,#290,#291,#292,#293,#294,#295,#296,#297,#298,#299,#300,
#301,#302,#303,#304,#305,#306,#307,#308,#309,#310,#311,#312,#313,#314,#315,#316,
#317,#318,#319),
.UNSPECIFIED.,.F.,.F.,
(4,1,1,1,1,1,1,1,1,1,1,1,1,1,1,1,1,1,1,1,1,1,1,1,1,1,1,1,1,1,1,1,4),
(0.,0.0266994965077405,0.0556103558470118,0.0867412196299915,0.122310195488374,0.160093847070064,
0.200088020892059,0.240081185244225,0.28007150771445,0.320059703472543,0.358936989348815,
0.396705162639654,0.432247738594002,0.466672553177937,0.498866766543177,0.500000012510905,
0.529949670858156,0.559926459597147,0.589899810472097,0.618756022893078,0.646510873593669,
0.674287199192377,0.703162577005643,0.740938052615541,0.777602919469099,0.813157947397075,
0.839822570244976,0.866488278117182,0.893155927054391,0.919847446206681,0.946559984526616,
0.973270824508686,1.),
.UNSPECIFIED.);
#255=B_SPLINE_CURVE_WITH_KNOTS('',3,
(#320,#321,#322,#323,#324,#325,#326,#327,#328,#329,#330,#331,#332,#333,#334,#335,
#336,#337,#338,#339,#340,#341,#342,#343,#344,#345,#346,#347,#348,#349,#350,#351,
#352,#353,#354),
.UNSPECIFIED.,.F.,.F.,
(4,1,1,1,1,1,1,1,1,1,1,1,1,1,1,1,1,1,1,1,1,1,1,1,1,1,1,1,1,1,1,1,4),
(0.,0.0266994879669898,0.0556103557039579,0.0867412195621942,0.12231019544514,0.160093847038192,
0.200088020859204,0.240081185211156,0.280071507681586,0.320059703439695,0.35893698931595,
0.396705162606838,0.432247738561134,0.46667255314503,0.498866766510306,0.500000012477812,
0.529949670824949,0.559926459564287,0.589899810441998,0.618756022860686,0.646510873547966,
0.674287199159365,0.703162577037665,0.740938052506803,0.777602919259006,0.813157948689706,
0.839822569864281,0.866488271656943,0.893155925501203,0.919847467472094,0.946560004500885,
0.973270823605012,1.),
.UNSPECIFIED.);
#256=VERTEX_POINT('',#355);
#257=CIRCLE('',#356,45.);
#258=VERTEX_POINT('',#360);
#259=B_SPLINE_CURVE_WITH_KNOTS('',3,
(#361,#362,#363,#364,#365,#366,#367,#368,#369,#370,#371,#372,#373,#374,#375,#376,
#377,#378,#379,#380,#381,#382,#383,#384,#385,#386,#387,#388,#389,#390,#391,#392,
#393,#394,#395,#396,#397,#398,#399,#400,#401,#402,#403,#404,#405,#406,#407,#408,
#409,#410,#411,#412,#413,#414,#415,#416,#417,#418,#419,#420,#421,#422,#423,#424,
#425),
.UNSPECIFIED.,.T.,.F.,
(4,1,1,1,1,1,1,1,1,1,1,1,1,1,1,1,1,1,1,1,1,1,1,1,1,1,1,1,1,1,1,1,1,1,1,1,1,1,1,1,
1,1,1,1,1,1,1,1,1,1,1,1,1,1,1,1,1,1,1,1,1,1,4),
(0.,0.0167197024999405,0.0329115010484686,0.0485845860622079,0.0636737444931598,
0.078689717746428,0.0942050025065402,0.110293367696107,0.127737632617227,0.145964111678186,
0.165299758243815,0.184963178262311,0.203843078301787,0.221610627981936,0.238265804364761,
0.249994366563134,0.254922116751024,0.271579710177484,0.288236642674989,0.306003914595973,
0.324881827227361,0.343761561669976,0.361532610038859,0.378193054077161,0.394852076446368,
0.414849988150061,0.433736894772395,0.451513465773982,0.463467654642627,0.474036267310817,
0.486157953512281,0.499995510211635,0.502758059819635,0.521009912212112,0.537979153314467,
0.552798368164105,0.568300509155571,0.584210057487717,0.599840052359198,0.615625025143373,
0.631846445082067,0.649003040048171,0.666657698803177,0.684603019627097,0.70234085087208,
0.724067209084512,0.748834859691928,0.749991380034825,0.773020894441443,0.79242867699512,
0.809034025749841,0.826463402294136,0.844186621489386,0.861379415858396,0.876928913723257,
0.89136578676739,0.906919540299686,0.924697789808284,0.940827967275244,0.953076889403546,
0.964813047760423,0.980453444174762,1.),
.UNSPECIFIED.);
#260=VERTEX_POINT('',#426);
#261=B_SPLINE_CURVE_WITH_KNOTS('',3,
(#427,#428,#429,#430,#431,#432,#433,#434,#435,#436,#437,#438,#439,#440,#441,#442,
#443,#444,#445,#446,#447,#448,#449,#450,#451,#452,#453,#454,#455,#456,#457,#458,
#459,#460,#461,#462,#463,#464,#465,#466,#467,#468,#469,#470,#471,#472,#473,#474,
#475,#476,#477,#478,#479,#480,#481,#482,#483,#484,#485,#486,#487,#488,#489,#490,
#491,#492,#493,#494,#495,#496,#497,#498,#499,#500,#501,#502,#503,#504,#505,#506,
#507,#508,#509,#510,#511,#512,#513,#514,#515,#516,#517,#518,#519,#520,#521,#522,
#523,#524,#525,#526),
.UNSPECIFIED.,.T.,.F.,
(4,1,1,1,1,1,1,1,1,1,1,1,1,1,3,1,1,1,1,1,1,1,1,1,1,1,1,1,1,1,1,1,1,1,1,1,1,1,1,1,
1,1,1,1,1,3,1,1,1,1,1,1,1,1,1,1,1,1,1,1,1,1,1,1,1,1,1,1,1,1,1,1,1,1,1,1,1,1,1,1,
1,1,1,1,1,1,1,1,1,1,1,1,1,4),
(0.,0.00141203893044017,0.00285018032425163,0.00431434846113705,0.00582969785891054,
0.00737078871567893,0.00908928172772035,0.0109598292263852,0.0137952884755853,0.0172236746108322,
0.0203735571035331,0.0224173719053798,0.0234372389708888,0.0242987844414616,0.024999445908595,
0.0406482705385714,0.0565377669760067,0.0726569958687216,0.0891265452868452,0.105713201741081,
0.122367734710518,0.138973956276073,0.160428053062984,0.181385598041422,0.201837403172961,
0.221740101930862,0.241466886105818,0.249998282583714,0.261004356463659,0.27550101032501,
0.28997217865151,0.30428902760525,0.318475439974713,0.332162552302163,0.345488010324913,
0.358571126116554,0.37175934466315,0.385596401596009,0.399981588887847,0.415251094738663,
0.430857401725912,0.446291507644299,0.461215534512797,0.474887935709074,0.487812127349318,
0.499999886499045,0.508306268250628,0.516620643455471,0.524929379105616,0.533250222256232,
0.541563279070945,0.549885934419899,0.558212450603412,0.566539515877915,0.574876829204859,
0.583393087750638,0.592104266365825,0.604326484120585,0.620254982085161,0.639882271929991,
0.659694209412339,0.679141353064944,0.694889709602719,0.707115246180057,0.715919802827691,
0.724620936432255,0.733142191259629,0.741562636679877,0.749887090245439,0.749996331603412,
0.75821133161879,0.766628735478574,0.775143549342919,0.78383199441039,0.792620776670624,
0.804820625617945,0.820542457327724,0.839598966193958,0.85533163948387,0.86754528947583,
0.876064949069703,0.884205377266015,0.894206364367134,0.904480491336808,0.915047028178174,
0.923667952286499,0.932300681266318,0.943811950221115,0.957006736537493,0.969638152236523,
0.978829176026284,0.985843284085237,0.992902172253816,1.),
.UNSPECIFIED.);
#262=VERTEX_POINT('',#527);
#263=(BOUNDED_CURVE()B_SPLINE_CURVE(3,
(#528,#529,#530,#531,#532,#533,#534,#535,#536,#537,#538,#539,#540,#541,#542,#543,
#544,#545,#546,#547,#548,#549,#550,#551,#552,#553,#554,#555,#556,#557,#558,#559,
#560,#561,#562,#563,#564,#565,#566,#567,#568,#569,#570,#571,#572,#573,#574,#575,
#576,#577,#578,#579,#580,#581,#582,#583,#584,#585,#586,#587,#588,#589,#590,#591,
#592,#593,#594,#595),
.UNSPECIFIED.,.T.,.F.)B_SPLINE_CURVE_WITH_KNOTS((4,1,1,1,1,1,1,1,1,1,1,1,1,1,1,1,
1,1,1,1,1,1,1,1,1,1,1,1,1,1,1,1,1,1,1,1,1,1,1,1,1,1,1,1,1,1,1,1,1,1,1,1,1,1,1,1,
1,1,1,1,1,1,1,1,1,4),
(0.,0.0122137306485135,0.0247984350713666,0.037764854173248,0.05109092669871,0.0644000864198688,
0.0781050380688444,0.0922054379007431,0.107424522028959,0.123366345794375,0.14114079311488,
0.160024777221986,0.17946311699791,0.198346962927773,0.21611923741668,0.233333425687956,
0.249986593931247,0.249997025075567,0.26663966186681,0.283851310146274,0.301618805539331,
0.320496458550381,0.339929437625503,0.358809991094046,0.376582095451095,0.392132588754025,
0.406570340299497,0.4221250845167,0.439904138639679,0.459903443090286,0.479900712136021,
0.499887413928632,0.499994003648751,0.519874203006153,0.539861557926311,0.557148329057803,
0.571717954121938,0.584062939331945,0.596908389607344,0.611349046569087,0.626897812060184,
0.644054909150414,0.661710126892885,0.679930237551903,0.698217479275299,0.716006310096938,
0.733228805966413,0.749881966603597,0.749991213940184,0.766535010297181,0.783738389084791,
0.801489391474809,0.820350566860437,0.839775311069982,0.858655851471867,0.876427924599612,
0.891978417674879,0.906416213850354,0.921970887472041,0.939749963555596,0.955617661723931,
0.967339552135136,0.976019377743102,0.984413878182892,0.992768383992633,1.),
.UNSPECIFIED.)CURVE()GEOMETRIC_REPRESENTATION_ITEM()RATIONAL_B_SPLINE_CURVE((1.,
1.,1.,1.,1.,1.,1.,1.,1.,1.,1.,1.,1.,1.,1.,1.,1.,1.,1.,1.,1.,1.,1.,1.,1.,1.,1.,1.,
1.,1.,1.,1.,1.,1.,1.,1.,1.,1.,1.,1.,1.,1.,1.,1.,1.,1.,1.,1.,1.,1.,1.,1.,1.,1.,1.,
1.,1.,1.,1.,1.,1.,1.,1.,1.,1.,1.,1.,1.))REPRESENTATION_ITEM(''));
#264=VERTEX_POINT('',#596);
#265=CIRCLE('',#597,40.);
#266=VERTEX_POINT('',#601);
#267=VERTEX_POINT('',#602);
#268=B_SPLINE_CURVE_WITH_KNOTS('',3,
(#603,#604,#605,#606,#607,#608,#609,#610,#611,#612,#613,#614,#615,#616,#617,#618,
#619,#620,#621,#622,#623,#624,#625,#626,#627,#628,#629,#630,#631,#632,#633,#634,
#635,#636,#637,#638,#639,#640,#641,#642,#643,#644,#645,#646,#647,#648,#649,#650,
#651,#652,#653,#654,#655,#656,#657,#658,#659,#660,#661,#662,#663,#664,#665,#666,
#667,#668,#669,#670,#671,#672,#673,#674,#675,#676,#677,#678,#679,#680,#681,#682,
#683,#684,#685,#686,#687,#688,#689,#690,#691),
.UNSPECIFIED.,.F.,.F.,
(4,1,1,1,1,1,1,1,1,1,1,1,1,1,1,1,1,1,1,1,1,1,1,1,1,1,1,1,1,1,1,1,1,1,1,1,1,1,1,1,
1,1,1,1,1,1,1,1,1,1,1,1,1,1,1,1,1,1,1,1,1,1,1,1,1,1,1,1,1,1,1,1,1,1,1,1,1,1,1,1,
1,1,1,1,1,1,4),
(0.,0.00579396841185509,0.0115977751270681,0.0174136976691044,0.0232675430968221,
0.0291412748475096,0.0357863568527888,0.0431833951271733,0.0541899636036733,0.0653281210962975,
0.076584365286767,0.0844545901642742,0.0916788897209307,0.0982611140759371,0.10485089885139,
0.111770505525564,0.119009240757062,0.12689475460471,0.135112541613612,0.145170041132478,
0.156732749309217,0.174435664332401,0.192428033837158,0.210675994368186,0.223329987864248,
0.234730982889282,0.244683255247944,0.254455554122262,0.26496096340625,0.276377195593983,
0.289862265844208,0.304524877978638,0.327800069692841,0.351066984104931,0.374289155335393,
0.388860301787206,0.4022416346671,0.413314901364413,0.42325631512188,0.434918422952889,
0.449314498746923,0.463600256068127,0.474889904642145,0.483267807697613,0.491622837493155,
0.499954155813202,0.50000004583376,0.508285435129641,0.516640032573915,0.525017246810067,
0.536304972680299,0.550586689566051,0.564977610421927,0.576634438224035,0.586570358560171,
0.597636997151753,0.611010002642926,0.625572178187292,0.648755370988576,0.671958383432736,
0.695144623568535,0.709710924276605,0.723087958243123,0.734068902995875,0.74382505127489,
0.754933075930512,0.769858021407636,0.788376902250198,0.807624940184398,0.822443827089242,
0.83306603433728,0.839727282996819,0.846388543223878,0.856766736939742,0.870853321995508,
0.888635292890152,0.90272867564576,0.913116837322447,0.919788635106613,0.926461209139901,
0.936857529519322,0.950966298829544,0.965796665026724,0.977650082101435,0.985819411753715,
0.993269112942107,1.),
.UNSPECIFIED.);
#269=B_SPLINE_CURVE_WITH_KNOTS('',3,
(#692,#693,#694,#695,#696,#697,#698,#699,#700,#701,#702,#703,#704,#705,#706,#707,
#708,#709,#710,#711,#712,#713,#714,#715,#716,#717,#718,#719,#720,#721,#722,#723,
#724,#725,#726,#727,#728,#729,#730,#731,#732,#733,#734,#735,#736,#737,#738,#739,
#740,#741,#742,#743,#744,#745,#746,#747,#748,#749,#750,#751,#752,#753,#754,#755,
#756,#757,#758,#759,#760,#761,#762,#763,#764,#765,#766,#767,#768,#769,#770,#771,
#772,#773,#774,#775,#776,#777,#778,#779,#780),
.UNSPECIFIED.,.F.,.F.,
(4,1,1,1,1,1,1,1,1,1,1,1,1,1,1,1,1,1,1,1,1,1,1,1,1,1,1,1,1,1,1,1,1,1,1,1,1,1,1,1,
1,1,1,1,1,1,1,1,1,1,1,1,1,1,1,1,1,1,1,1,1,1,1,1,1,1,1,1,1,1,1,1,1,1,1,1,1,1,1,1,
1,1,1,1,1,1,4),
(0.,0.0057939684118568,0.0115977751270785,0.0174136976691043,0.0232675430968234,
0.0291412748475138,0.0357863568527923,0.0431833951271701,0.0541899636036635,0.0653281210962831,
0.0765843652867524,0.0844545901642583,0.091678889720921,0.0982611140759247,0.104850898851378,
0.111770505525559,0.11900924075706,0.126894754604707,0.135112541613614,0.14517004113248,
0.15673274930922,0.174435664332404,0.192428033837158,0.210675994368184,0.223329987864251,
0.234730982889282,0.244683255247943,0.25445555412226,0.264960963406248,0.27637719559398,
0.289862265844209,0.304524877978638,0.327800069692839,0.351066984104932,0.374289155335396,
0.388860301787208,0.402241634667102,0.413314901364416,0.423256315121881,0.43491842295289,
0.449314498746923,0.463600256068126,0.474889904642144,0.483267807697613,0.491622837493154,
0.499954155813201,0.50000004583376,0.50828543512964,0.516640032573915,0.525017246810066,
0.536304972680299,0.550586689566049,0.564977610421925,0.576634438224032,0.586570358560169,
0.597636997151749,0.611010002642922,0.625572178187289,0.648755370988574,0.671958383432735,
0.695144623568532,0.709710924276602,0.723087958243122,0.734068902995872,0.743825051274891,
0.75493307593051,0.769858021407639,0.788376902250198,0.807624940184394,0.822443827089248,
0.833066034337282,0.839727282996816,0.846388543223876,0.856766736939743,0.870853321995506,
0.888635292890156,0.902728675645766,0.913116837322452,0.919788635106609,0.926461209139896,
0.936857529519324,0.950966298829542,0.965796665026724,0.977650082101428,0.985819411753709,
0.993269112942103,1.),
.UNSPECIFIED.);
#270=VERTEX_POINT('',#781);
#271=CIRCLE('',#782,40.);
#272=VERTEX_POINT('',#786);
#273=B_SPLINE_CURVE_WITH_KNOTS('',3,
(#787,#788,#789,#790,#791,#792,#793,#794,#795,#796,#797,#798,#799,#800,#801,#802,
#803,#804,#805,#806,#807,#808,#809,#810,#811,#812,#813,#814,#815,#816,#817,#818,
#819,#820,#821,#822,#823,#824,#825,#826,#827,#828,#829,#830,#831,#832,#833,#834,
#835,#836,#837,#838,#839,#840,#841,#842,#843,#844,#845,#846,#847,#848,#849,#850),
.UNSPECIFIED.,.T.,.F.,
(4,1,1,1,1,1,1,1,1,1,1,1,1,1,1,1,1,1,1,1,1,1,1,1,1,1,1,1,1,1,1,1,1,1,1,1,1,1,1,1,
1,1,1,1,1,1,1,1,1,1,1,1,1,1,1,1,1,1,1,1,1,4),
(0.,0.0167313348774989,0.0329303691322751,0.0486070731293096,0.0636923192872457,
0.0787005043825126,0.094207784585267,0.110291853685075,0.127735281349558,0.145960676657185,
0.165294704793393,0.184956210071107,0.2038338634016,0.221599116110329,0.23825186125609,
0.249996849926006,0.25490564043855,0.271560612939454,0.288214917728365,0.305979397002566,
0.324854363976733,0.343731559954581,0.361500644743322,0.378159932657011,0.394818032611701,
0.41481579381193,0.433702684037105,0.451479369144984,0.463435574275998,0.474008512664296,
0.486128199187713,0.500000433917232,0.502711435225318,0.520941974487354,0.537894026674604,
0.552711886484403,0.568218081554131,0.584140099294172,0.599785560358251,0.615582613219969,
0.631809630297658,0.648965037892115,0.666618218389365,0.684564832638139,0.702307015158538,
0.724049574609446,0.748829602797004,0.749998795467008,0.77302151202849,0.792419809868933,
0.809009730315673,0.826420405052941,0.844128461148474,0.861312950613394,0.883525026961287,
0.909072190294233,0.93351494630498,0.95129164863519,0.963258254216918,0.973851954951313,
0.985644737060535,1.),
.UNSPECIFIED.);
#274=VERTEX_POINT('',#851);
#275=B_SPLINE_CURVE_WITH_KNOTS('',3,
(#852,#853,#854,#855,#856,#857,#858,#859,#860,#861,#862,#863,#864,#865,#866,#867,
#868,#869,#870,#871,#872,#873,#874,#875,#876,#877,#878,#879,#880,#881,#882,#883,
#884,#885,#886,#887,#888,#889,#890,#891,#892,#893,#894,#895,#896,#897,#898,#899,
#900,#901,#902,#903,#904,#905,#906,#907,#908,#909,#910,#911,#912,#913,#914,#915,
#916),
.UNSPECIFIED.,.T.,.F.,
(4,1,1,1,1,1,1,1,1,1,1,1,1,1,1,1,1,1,1,1,1,1,1,1,1,1,1,1,1,1,1,1,1,1,1,1,1,1,1,1,
1,1,1,1,1,1,1,1,1,1,1,1,1,1,1,1,1,1,1,1,1,1,4),
(0.,0.0125038981147921,0.0292212335912068,0.0459452185053108,0.0626739875192304,
0.0810162842802466,0.100995686393287,0.122611395971025,0.140890376354383,0.16002548696215,
0.179462752667303,0.19834633004277,0.216118077303991,0.233330641592354,0.249981058461193,
0.250003642573889,0.266631345904167,0.283839121411274,0.301601684612953,0.320474296058953,
0.339903197034231,0.358781214504961,0.376551376424931,0.392100831439603,0.406537847630417,
0.422092646160389,0.439871685631481,0.459870911076926,0.479867566629173,0.499849297429035,
0.499999840865212,0.519831104885556,0.539813639845648,0.557102367133842,0.571676216717074,
0.584025359190499,0.596872653897629,0.611312643240072,0.626860563394326,0.644016340333538,
0.661669945115966,0.679891163557964,0.698182520388679,0.715975206159983,0.733198277339147,
0.749848693119601,0.749996344437801,0.766498953925361,0.783696258575027,0.801437944378372,
0.820289699972156,0.839708180787386,0.858586177630123,0.876356279165302,0.891905770822235,
0.906342958864946,0.923598548399965,0.940845946870004,0.958088368523687,0.970304519846895,
0.981433862948718,0.990976352838557,1.),
.UNSPECIFIED.);
#276=VERTEX_POINT('',#917);
#277=B_SPLINE_CURVE_WITH_KNOTS('',3,
(#918,#919,#920,#921,#922,#923,#924,#925,#926,#927,#928,#929,#930,#931,#932,#933,
#934,#935,#936,#937,#938,#939,#940,#941,#942,#943,#944,#945,#946,#947,#948,#949,
#950,#951,#952,#953,#954,#955,#956,#957,#958,#959,#960,#961,#962,#963,#964,#965,
#966,#967,#968,#969,#970,#971,#972,#973,#974,#975,#976,#977,#978,#979,#980,#981,
#982,#983),
.UNSPECIFIED.,.T.,.F.,
(4,1,1,1,1,1,1,1,1,1,1,1,1,1,1,1,1,1,1,1,1,1,1,1,1,1,1,1,1,1,1,1,1,1,1,1,1,1,1,1,
1,1,1,1,1,1,1,1,1,1,1,1,1,1,1,1,1,1,1,1,1,1,1,4),
(0.,0.0125034186283452,0.025027973160836,0.0375855749272455,0.0501421435661497,0.0626723186744411,
0.0810149195963017,0.100992502297796,0.122606270181042,0.140884542422331,0.160019337396371,
0.179456712932934,0.198340423169466,0.216112306918753,0.233324998041392,0.249975536390794,
0.249998119586738,0.266625946129289,0.283833847492221,0.301596541109624,0.320469292184296,
0.339898337053249,0.358776494303873,0.376546785593783,0.392096351116871,0.406533475976746,
0.42208839364627,0.439867561632035,0.459866934336404,0.479863737116322,0.499845615013806,
0.499996159576909,0.519827569495818,0.539810251442875,0.557099101594856,0.571673065039178,
0.584022304400663,0.596869688871242,0.611309786843272,0.626857817259559,0.644013716236793,
0.661667450904708,0.67988880638845,0.698180299709652,0.715973116155346,0.733196313189944,
0.74984685136408,0.749994503945844,0.766497234574228,0.783694664903138,0.801436480991669,
0.820288376011704,0.839707000454345,0.858585137235576,0.876355368893787,0.891904970397122,
0.906342264519212,0.92359799457757,0.940845524882431,0.958088022325846,0.970304283105153,
0.981433822240682,0.990976382443942,1.),
.UNSPECIFIED.);
#278=CARTESIAN_POINT('',(46.,45.,-5.69460761603519E-15));
#279=AXIS2_PLACEMENT_3D('',#280,#281,#282);
#280=CARTESIAN_POINT('',(46.,0.,-8.45006291411674E-15));
#281=DIRECTION('',(1.,0.,-1.83697019872103E-16));
#282=DIRECTION('',(1.12481983699639E-32,1.,6.12323399573677E-17));
#283=CARTESIAN_POINT('',(1.55000000002408,45.,7.8612335946079E-7));
#284=CARTESIAN_POINT('',(-1.55000000253895,45.,-4.74550630005624E-17));
#285=CARTESIAN_POINT('',(-1.55,45.,1.2276854757865E-10));
#286=CARTESIAN_POINT('',(-1.5500060145508,45.0000008970451,0.0433520917657393));
#287=CARTESIAN_POINT('',(-1.54620684031802,44.9998687799351,0.133627679077297));
#288=CARTESIAN_POINT('',(-1.52803874143511,44.9992467584176,0.273382003083126));
#289=CARTESIAN_POINT('',(-1.49357799078496,44.998085049334,0.42490588787957));
#290=CARTESIAN_POINT('',(-1.43879595850464,44.9962905630207,0.585682721713684));
#291=CARTESIAN_POINT('',(-1.35969343020913,44.9938163660928,0.752143500595345));
#292=CARTESIAN_POINT('',(-1.25701698867336,44.9908126566483,0.913828663849646));
#293=CARTESIAN_POINT('',(-1.13260512440881,44.9874911347519,1.06413243625009));
#294=CARTESIAN_POINT('',(-0.99035108697837,44.9841168340421,1.19765416789328));
#295=CARTESIAN_POINT('',(-0.833954499343998,44.9809312659616,1.31123653829102));
#296=CARTESIAN_POINT('',(-0.667897265694329,44.9781510158989,1.40287195702066));
#297=CARTESIAN_POINT('',(-0.498753780685401,44.9759565307333,1.47118716001361));
#298=CARTESIAN_POINT('',(-0.329886591174277,44.9744043174076,1.51768553038614));
#299=CARTESIAN_POINT('',(-0.165900028079765,44.9735067642654,1.54394537438354));
#300=CARTESIAN_POINT('',(-0.0559392917596304,44.9733009517466,1.54990369575773));
#301=CARTESIAN_POINT('',(0.0467770450864405,44.9732946502831,1.55008654813232));
#302=CARTESIAN_POINT('',(0.14589349726598,44.9734558322169,1.54541992400472));
#303=CARTESIAN_POINT('',(0.290532521247888,44.9741596456081,1.52486190589483));
#304=CARTESIAN_POINT('',(0.430866106678563,44.9752912418502,1.49120895284366));
#305=CARTESIAN_POINT('',(0.564063632061802,44.9767736269733,1.4459163302738));
#306=CARTESIAN_POINT('',(0.689434727744063,44.9785273185677,1.39042461298328));
#307=CARTESIAN_POINT('',(0.809519231248467,44.980531200728,1.3242086276166));
#308=CARTESIAN_POINT('',(0.936753363183006,44.9829885792426,1.23848211940808));
#309=CARTESIAN_POINT('',(1.06549164717481,44.9858531113441,1.13057588511714));
#310=CARTESIAN_POINT('',(1.18820326205868,44.9889438415814,1.00050031430584));
#311=CARTESIAN_POINT('',(1.28456442464129,44.991613421257,0.871841073156726));
#312=CARTESIAN_POINT('',(1.3594351370628,44.9938246866268,0.748372878491742));
#313=CARTESIAN_POINT('',(1.41728812796026,44.9956139810324,0.631998050430748));
#314=CARTESIAN_POINT('',(1.46521659759745,44.9971527402321,0.511148694484456));
#315=CARTESIAN_POINT('',(1.50288226158211,44.9983978497481,0.38663568784906));
#316=CARTESIAN_POINT('',(1.52999928801921,44.9993139227961,0.259327793895659));
#317=CARTESIAN_POINT('',(1.54635173318163,44.9998738288995,0.130145661430634));
#318=CARTESIAN_POINT('',(1.55000563017713,45.0000008136621,0.0433965590408712));
#319=CARTESIAN_POINT('',(1.55000000001784,45.,1.17918504199784E-6));
#320=CARTESIAN_POINT('',(1.55000000000903,45.,-1.23467191081882E-10));
#321=CARTESIAN_POINT('',(1.55000601454983,45.0000008970445,-0.0433520779492179));
#322=CARTESIAN_POINT('',(1.54620684153206,44.9998687799773,-0.133627665111161));
#323=CARTESIAN_POINT('',(1.52803874453894,44.9992467585223,-0.273381989385691));
#324=CARTESIAN_POINT('',(1.493577990856,44.9980850493364,-0.42490588765723));
#325=CARTESIAN_POINT('',(1.43879595853642,44.9962905630217,-0.585682721642964));
#326=CARTESIAN_POINT('',(1.35969343022059,44.9938163660931,-0.752143500577385));
#327=CARTESIAN_POINT('',(1.25701698867195,44.9908126566482,-0.913828663851682));
#328=CARTESIAN_POINT('',(1.13260512440805,44.9874911347519,-1.06413243625077));
#329=CARTESIAN_POINT('',(0.990351086978848,44.9841168340421,-1.19765416789287));
#330=CARTESIAN_POINT('',(0.833954499344022,44.9809312659615,-1.31123653829102));
#331=CARTESIAN_POINT('',(0.667897265694093,44.9781510158989,-1.40287195702075));
#332=CARTESIAN_POINT('',(0.498753780685663,44.9759565307333,-1.47118716001352));
#333=CARTESIAN_POINT('',(0.329886591174267,44.9744043174076,-1.51768553038617));
#334=CARTESIAN_POINT('',(0.165900028079381,44.9735067642654,-1.54394537438354));
#335=CARTESIAN_POINT('',(0.055939291760271,44.9733009517466,-1.54990369575774));
#336=CARTESIAN_POINT('',(-0.0467770450858039,44.973294650283,-1.5500865481323));
#337=CARTESIAN_POINT('',(-0.145893497266797,44.973455832217,-1.54541992400481));
#338=CARTESIAN_POINT('',(-0.290532521255324,44.9741596456081,-1.52486190589346));
#339=CARTESIAN_POINT('',(-0.430866106668609,44.9752912418501,-1.49120895284557));
#340=CARTESIAN_POINT('',(-0.56406363202867,44.9767736269728,-1.44591633028739));
#341=CARTESIAN_POINT('',(-0.689434727797002,44.9785273185684,-1.39042461295961));
#342=CARTESIAN_POINT('',(-0.80951923138688,44.9805312007305,-1.32420862753518));
#343=CARTESIAN_POINT('',(-0.936753362736509,44.9829885792342,-1.23848211967758));
#344=CARTESIAN_POINT('',(-1.06549164689439,44.9858531113348,-1.13057588561741));
#345=CARTESIAN_POINT('',(-1.18820326566387,44.9889438416774,-1.00050030994434));
#346=CARTESIAN_POINT('',(-1.28456442046038,44.9916134211413,-0.871841078651625));
#347=CARTESIAN_POINT('',(-1.3594351298876,44.9938246864083,-0.748372891747774));
#348=CARTESIAN_POINT('',(-1.4172881368474,44.9956139813073,-0.631998033180411));
#349=CARTESIAN_POINT('',(-1.46521661488008,44.9971527407963,-0.511148644112816));
#350=CARTESIAN_POINT('',(-1.50288225168805,44.9983978494233,-0.386635718571924));
#351=CARTESIAN_POINT('',(-1.52999928048628,44.9993139225308,-0.259327847547324));
#352=CARTESIAN_POINT('',(-1.54635177006333,44.9998738301817,-0.130145415938412));
#353=CARTESIAN_POINT('',(-1.55000565947192,45.0000008146345,-0.0433957804945174));
#354=CARTESIAN_POINT('',(-1.55000000253895,45.,-2.89782048801603E-15));
#355=CARTESIAN_POINT('',(-5.,45.,3.67394039744206E-15));
#356=AXIS2_PLACEMENT_3D('',#357,#358,#359);
#357=CARTESIAN_POINT('',(-5.,0.,9.18485099360515E-16));
#358=DIRECTION('',(1.,0.,-1.83697019872103E-16));
#359=DIRECTION('',(1.12481983699639E-32,1.,6.12323399573677E-17));
#360=CARTESIAN_POINT('',(-1.55,1.8982025386784E-16,45.));
#361=CARTESIAN_POINT('',(-1.55,2.03942158299997E-10,45.));
#362=CARTESIAN_POINT('',(-1.55000048618161,-0.0542742696838681,45.0000000536508));
#363=CARTESIAN_POINT('',(-1.54438295216325,-0.161120199916352,44.9998059665153));
#364=CARTESIAN_POINT('',(-1.51985506954665,-0.317145690376582,44.9989681183203));
#365=CARTESIAN_POINT('',(-1.48120411266478,-0.464786508647939,44.9976754544398));
#366=CARTESIAN_POINT('',(-1.42981313251279,-0.604407772154252,44.9960085472223));
#367=CARTESIAN_POINT('',(-1.36568792920689,-0.738089673338793,44.994010185591));
#368=CARTESIAN_POINT('',(-1.28737151996775,-0.867803322196971,44.9916922869486));
#369=CARTESIAN_POINT('',(-1.19184826699452,-0.995442465652268,44.9890473844228));
#370=CARTESIAN_POINT('',(-1.07741853024219,-1.11881559624061,44.9861437391435));
#371=CARTESIAN_POINT('',(-0.941887092647565,-1.23552794390596,44.9830814198887));
#372=CARTESIAN_POINT('',(-0.787544477750811,-1.33952406292601,44.9800930350347));
#373=CARTESIAN_POINT('',(-0.619744550787837,-1.42484707637832,44.977457068699));
#374=CARTESIAN_POINT('',(-0.447668310637323,-1.48752760869001,44.9754166932916));
#375=CARTESIAN_POINT('',(-0.279053472367463,-1.52775032170683,44.9740620041229));
#376=CARTESIAN_POINT('',(-0.130193594971888,-1.54660567550256,44.9734147206799));
#377=CARTESIAN_POINT('',(-0.0220722055849579,-1.55058917193969,44.973277327357));
#378=CARTESIAN_POINT('',(0.0860503418984937,-1.54891580775535,44.9733349817585));
#379=CARTESIAN_POINT('',(0.209906166151284,-1.538579398657,44.973691392022));
#380=CARTESIAN_POINT('',(0.373052540690894,-1.50755522894779,44.9747461261821));
#381=CARTESIAN_POINT('',(0.538842880479754,-1.45698022967557,44.97642102359));
#382=CARTESIAN_POINT('',(0.704363762567027,-1.38479834581591,44.978713201119));
#383=CARTESIAN_POINT('',(0.860180965297966,-1.2935346567165,44.9814412752171));
#384=CARTESIAN_POINT('',(0.998689270159008,-1.18933217757874,44.9843239891051));
#385=CARTESIAN_POINT('',(1.11985050997179,-1.07574371577615,44.9871909487821));
#386=CARTESIAN_POINT('',(1.23321468170469,-0.944645061136157,44.9901575222021));
#387=CARTESIAN_POINT('',(1.33490093150609,-0.795313957070723,44.9930702929148));
#388=CARTESIAN_POINT('',(1.41928190304092,-0.631499006225963,44.9956680939046));
#389=CARTESIAN_POINT('',(1.47503755654105,-0.483580607490637,44.9974736051432));
#390=CARTESIAN_POINT('',(1.50958893605643,-0.357295325615818,44.9986239313012));
#391=CARTESIAN_POINT('',(1.53154094033281,-0.246906548229949,44.9993667847621));
#392=CARTESIAN_POINT('',(1.54633637942495,-0.129160760913518,44.999873568786));
#393=CARTESIAN_POINT('',(1.55038965643369,-0.0359479818471221,45.0000134209385));
#394=CARTESIAN_POINT('',(1.54940834897666,0.0771760903285747,44.9999796336151));
#395=CARTESIAN_POINT('',(1.54019137001954,0.200358149610231,44.9996615253651));
#396=CARTESIAN_POINT('',(1.51020741195423,0.360257837446719,44.9986420003137));
#397=CARTESIAN_POINT('',(1.46696349571572,0.507737554299076,44.9972079323865));
#398=CARTESIAN_POINT('',(1.41115872834512,0.647258950306792,44.9954167492749));
#399=CARTESIAN_POINT('',(1.3406595998476,0.782948012836038,44.9932535754731));
#400=CARTESIAN_POINT('',(1.2565896536371,0.911753789781223,44.990819426336));
#401=CARTESIAN_POINT('',(1.15960314752003,1.032439294911,44.9882052131061));
#402=CARTESIAN_POINT('',(1.04750318676805,1.14632480457716,44.9854418841916));
#403=CARTESIAN_POINT('',(0.919387282902589,1.25172858568897,44.9826249813233));
#404=CARTESIAN_POINT('',(0.775825598476709,1.34559768586942,44.9799051861653));
#405=CARTESIAN_POINT('',(0.620985621329126,1.42371421331823,44.9774903005481));
#406=CARTESIAN_POINT('',(0.445965853466148,1.4886228124812,44.9753831047087));
#407=CARTESIAN_POINT('',(0.242509093532039,1.53651034603989,44.9737650540017));
#408=CARTESIAN_POINT('',(0.087907003956881,1.5496943386128,44.9733081626117));
#409=CARTESIAN_POINT('',(-0.0710022642470593,1.5502715753416,44.9732882731623));
#410=CARTESIAN_POINT('',(-0.212501906573164,1.54001746804003,44.9736435656629));
#411=CARTESIAN_POINT('',(-0.400496238114768,1.50079911436008,44.9749743338159));
#412=CARTESIAN_POINT('',(-0.56548828969728,1.44633986327255,44.9767638982433));
#413=CARTESIAN_POINT('',(-0.718746550368722,1.37684082527742,44.9789549459381));
#414=CARTESIAN_POINT('',(-0.86505379802485,1.28989823451532,44.9815425252127));
#415=CARTESIAN_POINT('',(-0.996068616337784,1.19115171502424,44.984271656064));
#416=CARTESIAN_POINT('',(-1.10839694923458,1.08677337484788,44.9869156661277));
#417=CARTESIAN_POINT('',(-1.2068468973008,0.976290141651834,44.9894558949262));
#418=CARTESIAN_POINT('',(-1.298773094408,0.851175378935393,44.9920172570847));
#419=CARTESIAN_POINT('',(-1.37992694472978,0.712329527105535,44.9944422363522));
#420=CARTESIAN_POINT('',(-1.44143198072287,0.575489956765746,44.9963821205442));
#421=CARTESIAN_POINT('',(-1.48407259959321,0.452308003418404,44.9977731861864));
#422=CARTESIAN_POINT('',(-1.51690162663831,0.327836336366047,44.9988688686266));
#423=CARTESIAN_POINT('',(-1.54297585016518,0.177658102149411,44.9997571026407));
#424=CARTESIAN_POINT('',(-1.54999943161812,0.0634505936723301,44.9999999372783));
#425=CARTESIAN_POINT('',(-1.55,2.03942158299997E-10,45.));
#426=CARTESIAN_POINT('',(-1.55,1.8982025386784E-16,-45.));
#427=CARTESIAN_POINT('',(-1.55,8.96809925029097E-13,-45.));
#428=CARTESIAN_POINT('',(-1.55000000014369,0.00458965216377399,-45.0000000000867));
#429=CARTESIAN_POINT('',(-1.54995885225977,0.0138527536926875,-44.9999985826226));
#430=CARTESIAN_POINT('',(-1.54977092994101,0.0278703280649651,-44.9999921101751));
#431=CARTESIAN_POINT('',(-1.54944760270593,0.0422183665373573,-44.9999809758054));
#432=CARTESIAN_POINT('',(-1.54897932352413,0.0568943049048903,-44.9999648538399));
#433=CARTESIAN_POINT('',(-1.54833592077124,0.0723877589402624,-44.9999427104765));
#434=CARTESIAN_POINT('',(-1.54747432557389,0.0890231002594912,-44.9999130716917));
#435=CARTESIAN_POINT('',(-1.54616069666697,0.109838958785296,-44.9998679119005));
#436=CARTESIAN_POINT('',(-1.5441082875437,0.136163621611204,-44.9997974231951));
#437=CARTESIAN_POINT('',(-1.54113462230467,0.16657161841707,-44.9996954649891));
#438=CARTESIAN_POINT('',(-1.53783656919602,0.194357822412314,-44.9995826396371));
#439=CARTESIAN_POINT('',(-1.53513360505271,0.214340179191509,-44.9994903710278));
#440=CARTESIAN_POINT('',(-1.53330469910656,0.226946525430743,-44.9994280263247));
#441=CARTESIAN_POINT('',(-1.53205261241242,0.235232095894646,-44.9993853820136));
#442=CARTESIAN_POINT('',(-1.53127047058351,0.240241371908414,-44.9993587635228));
#443=CARTESIAN_POINT('',(-1.53091472715461,0.242487315505608,-44.999346660833));
#444=CARTESIAN_POINT('',(-1.52297158023899,0.292699619955302,-44.9990774304568));
#445=CARTESIAN_POINT('',(-1.5019533031215,0.393060523404582,-44.9983647584577));
#446=CARTESIAN_POINT('',(-1.45539204589637,0.540785201344804,-44.9968299881897));
#447=CARTESIAN_POINT('',(-1.3931696047959,0.685554752795817,-44.9948530065272));
#448=CARTESIAN_POINT('',(-1.31538481638835,0.825173791389775,-44.9925027925593));
#449=CARTESIAN_POINT('',(-1.22254617305884,0.957407157291478,-44.9898744319491));
#450=CARTESIAN_POINT('',(-1.116124097011,1.07959602621993,-44.9870981653445));
#451=CARTESIAN_POINT('',(-0.985930973122931,1.20082617795013,-44.9840286446021));
#452=CARTESIAN_POINT('',(-0.830775776583536,1.31398895230151,-44.9808567029881));
#453=CARTESIAN_POINT('',(-0.651050774941528,1.41146050482833,-44.977884827202));
#454=CARTESIAN_POINT('',(-0.464850019182541,1.48301321372726,-44.9755687955258));
#455=CARTESIAN_POINT('',(-0.274989757171799,1.52948617631655,-44.9740038962576));
#456=CARTESIAN_POINT('',(-0.119408077427578,1.54754238717368,-44.9733823133773));
#457=CARTESIAN_POINT('',(0.00803224319215517,1.5509573394997,-44.9732646306679));
#458=CARTESIAN_POINT('',(0.118495612983655,1.54713771991802,-44.9733963645608));
#459=CARTESIAN_POINT('',(0.247522542575354,1.53227695559119,-44.9739067397783));
#460=CARTESIAN_POINT('',(0.385210167250754,1.5035532488929,-44.9748788309083));
#461=CARTESIAN_POINT('',(0.518791424867576,1.46280130760376,-44.9762262385142));
#462=CARTESIAN_POINT('',(0.645850544531971,1.41121565213136,-44.9778783302138));
#463=CARTESIAN_POINT('',(0.765026523367906,1.35018864863257,-44.9797554183681));
#464=CARTESIAN_POINT('',(0.875521739111016,1.28120184747802,-44.9817772100584));
#465=CARTESIAN_POINT('',(0.978609154822892,1.20427715286266,-44.9839069703879));
#466=CARTESIAN_POINT('',(1.07625937873456,1.11800950954464,-44.9861403572959));
#467=CARTESIAN_POINT('',(1.1691766595533,1.02070051377708,-44.9884622967864));
#468=CARTESIAN_POINT('',(1.25734277847167,0.910248071287244,-44.9908435494936));
#469=CARTESIAN_POINT('',(1.33801649641542,0.787247444428244,-44.9931755724606));
#470=CARTESIAN_POINT('',(1.40798707868354,0.653987549769861,-44.995317381321));
#471=CARTESIAN_POINT('',(1.46423040180673,0.515584333073159,-44.9971186095229));
#472=CARTESIAN_POINT('',(1.50523915745748,0.378463231753186,-44.9984763950203));
#473=CARTESIAN_POINT('',(1.53214756946721,0.246224372000975,-44.9993872358475));
#474=CARTESIAN_POINT('',(1.5468755304684,0.121076621950612,-44.9998919958445));
#475=CARTESIAN_POINT('',(1.5500044352951,0.0395618333902011,-45.0000006210788));
#476=CARTESIAN_POINT('',(1.55000000000006,1.99091753875405E-9,-45.000000000001));
#477=CARTESIAN_POINT('',(1.55000078733317,-0.0269777754987718,-45.0000001213257));
#478=CARTESIAN_POINT('',(1.5485900468709,-0.080950515775726,-44.9999513581687));
#479=CARTESIAN_POINT('',(1.54225463940325,-0.161666628221082,-44.9997336399613));
#480=CARTESIAN_POINT('',(1.53170904030969,-0.241979081491706,-44.9993731077594));
#481=CARTESIAN_POINT('',(1.51698538040399,-0.321626125920474,-44.998873892528));
#482=CARTESIAN_POINT('',(1.4981087951211,-0.400448410990677,-44.99824091041));
#483=CARTESIAN_POINT('',(1.47513397204878,-0.478196658609359,-44.9974811830145));
#484=CARTESIAN_POINT('',(1.44811205968741,-0.554675244606949,-44.9966026381145));
#485=CARTESIAN_POINT('',(1.41711062486313,-0.629677217244932,-44.9956146922088));
#486=CARTESIAN_POINT('',(1.38196241405873,-0.703509805692064,-44.994520332055));
#487=CARTESIAN_POINT('',(1.34236071092867,-0.776475766269163,-44.9933200172207));
#488=CARTESIAN_POINT('',(1.29226021413752,-0.857940440178467,-44.9918481832277));
#489=CARTESIAN_POINT('',(1.22295967896885,-0.955602977184518,-44.989896796196));
#490=CARTESIAN_POINT('',(1.12225696491987,-1.07381919297624,-44.9872457248955));
#491=CARTESIAN_POINT('',(0.990934304269738,-1.19702709732921,-44.9841321250935));
#492=CARTESIAN_POINT('',(0.836134055173142,-1.30980658432939,-44.9809728536431));
#493=CARTESIAN_POINT('',(0.679671010314024,-1.3965653984127,-44.9783435769304));
#494=CARTESIAN_POINT('',(0.537442449593627,-1.45598140787296,-44.9764473433032));
#495=CARTESIAN_POINT('',(0.423569210840552,-1.4921857575671,-44.9752556832099));
#496=CARTESIAN_POINT('',(0.329819696457108,-1.51530273308563,-44.9744812764278));
#497=CARTESIAN_POINT('',(0.246767192551453,-1.53099687944236,-44.9739491980529));
#498=CARTESIAN_POINT('',(0.164227740688954,-1.5420112528471,-44.9735725242681));
#499=CARTESIAN_POINT('',(0.0824405414575239,-1.54852204578124,-44.9733486039024));
#500=CARTESIAN_POINT('',(0.0277312378771536,-1.54999060522203,-44.9732979569362));
#501=CARTESIAN_POINT('',(-0.0263121145182697,-1.55000915121245,-44.9732973177551));
#502=CARTESIAN_POINT('',(-0.0806571478006233,-1.54860639417118,-44.9733456951364));
#503=CARTESIAN_POINT('',(-0.162067957481067,-1.54223891696584,-44.9735647100878));
#504=CARTESIAN_POINT('',(-0.244551276325215,-1.53135069183557,-44.9739371392336));
#505=CARTESIAN_POINT('',(-0.327515294082472,-1.51579987637369,-44.9744645029764));
#506=CARTESIAN_POINT('',(-0.421130189387939,-1.49287127247548,-44.9752328917232));
#507=CARTESIAN_POINT('',(-0.534853958327227,-1.45692633890926,-44.9764166379868));
#508=CARTESIAN_POINT('',(-0.675862365375565,-1.39832736349253,-44.9782882219632));
#509=CARTESIAN_POINT('',(-0.819774359308331,-1.3191225642865,-44.9806922681952));
#510=CARTESIAN_POINT('',(-0.944778645221948,-1.2313025628372,-44.9831775508801));
#511=CARTESIAN_POINT('',(-1.03536684623591,-1.15496796781366,-44.9851933372871));
#512=CARTESIAN_POINT('',(-1.10298308694193,-1.09001065114659,-44.9868090723098));
#513=CARTESIAN_POINT('',(-1.16219365304874,-1.02684836071062,-44.9882988674395));
#514=CARTESIAN_POINT('',(-1.2213733623402,-0.956032617346429,-44.9898657074506));
#515=CARTESIAN_POINT('',(-1.28058399320057,-0.875237133011704,-44.9915136494519));
#516=CARTESIAN_POINT('',(-1.33197804932719,-0.794516322614398,-44.9930096337406));
#517=CARTESIAN_POINT('',(-1.3758223562994,-0.715518738272051,-44.9943317192231));
#518=CARTESIAN_POINT('',(-1.41666543146687,-0.631498773015503,-44.995598511961));
#519=CARTESIAN_POINT('',(-1.45775940228179,-0.531294780847607,-44.9969108204321));
#520=CARTESIAN_POINT('',(-1.49494543097152,-0.41583158115314,-44.9981332223145));
#521=CARTESIAN_POINT('',(-1.52092821256426,-0.305081313809325,-44.9990065900772));
#522=CARTESIAN_POINT('',(-1.53602117302402,-0.212666977586286,-44.9995202869544));
#523=CARTESIAN_POINT('',(-1.5443873429411,-0.137599199102739,-44.9998068987094));
#524=CARTESIAN_POINT('',(-1.54897441463007,-0.0690097949832012,-44.9999646337759));
#525=CARTESIAN_POINT('',(-1.55000042923243,-0.0230470115761124,-45.0000000647369));
#526=CARTESIAN_POINT('',(-1.55,8.96809925029097E-13,-45.));
#527=CARTESIAN_POINT('',(-1.55,-45.,-2.94527555194938E-15));
#528=CARTESIAN_POINT('',(-1.55,-44.9999999999992,8.43120080175341E-9));
#529=CARTESIAN_POINT('',(-1.5499998266102,-44.9999999828579,-0.0396360775009732));
#530=CARTESIAN_POINT('',(-1.54691146432799,-44.9998934678489,-0.120133170300339));
#531=CARTESIAN_POINT('',(-1.5326756529863,-44.9994052862207,-0.242020191932768));
#532=CARTESIAN_POINT('',(-1.50800161748727,-44.9985696807775,-0.365929125701816));
#533=CARTESIAN_POINT('',(-1.47253738805877,-44.9973922910173,-0.489641295008194));
#534=CARTESIAN_POINT('',(-1.42601238604437,-44.9958900734204,-0.612179253889575));
#535=CARTESIAN_POINT('',(-1.36818020824135,-44.9940892297124,-0.732599081301793));
#536=CARTESIAN_POINT('',(-1.29689209905615,-44.9919704101257,-0.852864678659831));
#537=CARTESIAN_POINT('',(-1.21056473369458,-44.9895540712013,-0.971967613579121));
#538=CARTESIAN_POINT('',(-1.10508073588708,-44.9868237489773,-1.09101157820626));
#539=CARTESIAN_POINT('',(-0.978770701067878,-44.9838760708625,-1.20629816655063));
#540=CARTESIAN_POINT('',(-0.830793792690356,-44.9808783572629,-1.31298060845015));
#541=CARTESIAN_POINT('',(-0.667895496684407,-44.978150980873,-1.40287306926354));
#542=CARTESIAN_POINT('',(-0.49874073430897,-44.9759563695022,-1.47119212851798));
#543=CARTESIAN_POINT('',(-0.329861323375208,-44.9744041233765,-1.51769130186769));
#544=CARTESIAN_POINT('',(-0.164095192100406,-44.9734969312485,-1.54423290132682));
#545=CARTESIAN_POINT('',(-0.0541253359269048,-44.9732976942319,-1.54999822774708));
#546=CARTESIAN_POINT('',(0.0539895817686345,-44.973297572147,-1.55000177002574));
#547=CARTESIAN_POINT('',(0.1639173650107,-44.9734963571153,-1.54424951998728));
#548=CARTESIAN_POINT('',(0.329629783585488,-44.9744024626715,-1.51774026538719));
#549=CARTESIAN_POINT('',(0.498474248772318,-44.9759534667382,-1.47128026920492));
#550=CARTESIAN_POINT('',(0.667593047421351,-44.9781465329178,-1.40301451606121));
#551=CARTESIAN_POINT('',(0.830469367228761,-44.9808723794208,-1.31318378241286));
#552=CARTESIAN_POINT('',(0.978444640556846,-44.9838689676274,-1.20656128250301));
#553=CARTESIAN_POINT('',(1.10383344619442,-44.9867942500553,-1.09217965461138));
#554=CARTESIAN_POINT('',(1.20695411999055,-44.9894593287677,-0.97615714299568));
#555=CARTESIAN_POINT('',(1.29442896817459,-44.9918977035756,-0.856782811563862));
#556=CARTESIAN_POINT('',(1.37401252985884,-44.9942602708125,-0.723464470133949));
#557=CARTESIAN_POINT('',(1.44684531774951,-44.9965479379352,-0.566091570664438));
#558=CARTESIAN_POINT('',(1.5050287852428,-44.9984650243491,-0.387385911662067));
#559=CARTESIAN_POINT('',(1.54170634979845,-44.9997132209713,-0.195738657146735));
#560=CARTESIAN_POINT('',(1.54997815369413,-44.999999247556,-0.065581715583629));
#561=CARTESIAN_POINT('',(1.55002161492102,-45.0000007445051,0.0641977675932494));
#562=CARTESIAN_POINT('',(1.54190492835849,-44.9997200982368,0.193978535487418));
#563=CARTESIAN_POINT('',(1.50720701146942,-44.9985389119388,0.376635933064709));
#564=CARTESIAN_POINT('',(1.45661588213784,-44.9968691192749,0.537423950665017));
#565=CARTESIAN_POINT('',(1.40002765759103,-44.9950717523066,0.669453407016505));
#566=CARTESIAN_POINT('',(1.33929690696892,-44.9932211152751,0.783457049555764));
#567=CARTESIAN_POINT('',(1.26996596643045,-44.9912035499829,0.891955584073597));
#568=CARTESIAN_POINT('',(1.18524946803451,-44.9888805702116,1.00239981745453));
#569=CARTESIAN_POINT('',(1.08096631309135,-44.9862386197685,1.11466917856435));
#570=CARTESIAN_POINT('',(0.95783095521522,-44.9834303469169,1.22256189938565));
#571=CARTESIAN_POINT('',(0.816522421809779,-44.9806273892281,1.32135755673781));
#572=CARTESIAN_POINT('',(0.661750956247173,-44.9780697773306,1.40539808635176));
#573=CARTESIAN_POINT('',(0.497963146241074,-44.9759512343131,1.47134084689686));
#574=CARTESIAN_POINT('',(0.330910140374909,-44.9744117090551,1.51746750993543));
#575=CARTESIAN_POINT('',(0.16508125615279,-44.9735005024407,1.54412927275183));
#576=CARTESIAN_POINT('',(0.0547669242333781,-44.9732982766971,1.54998132689289));
#577=CARTESIAN_POINT('',(-0.0533480532619806,-44.9732969979687,1.55001842979236));
#578=CARTESIAN_POINT('',(-0.163248885991787,-44.9734945408241,1.54430182681217));
#579=CARTESIAN_POINT('',(-0.328581043720449,-44.9743949056958,1.51796311504013));
#580=CARTESIAN_POINT('',(-0.497329316766469,-44.9759409288403,1.47166116627189));
#581=CARTESIAN_POINT('',(-0.666379900522414,-44.9781285904684,1.40358577799798));
#582=CARTESIAN_POINT('',(-0.829266836394343,-44.9808501230124,1.31394158149219));
#583=CARTESIAN_POINT('',(-0.977319567595659,-44.9838444017707,1.20747277647459));
#584=CARTESIAN_POINT('',(-1.10281503419853,-44.9867691810876,1.0932079734545));
#585=CARTESIAN_POINT('',(-1.2060438552363,-44.9894348466309,0.977281570779754));
#586=CARTESIAN_POINT('',(-1.29362928707176,-44.9918746326884,0.857989559708762));
#587=CARTESIAN_POINT('',(-1.37333771443869,-44.9942396039269,0.724745466963279));
#588=CARTESIAN_POINT('',(-1.44066366004308,-44.9963533295682,0.579622473783477));
#589=CARTESIAN_POINT('',(-1.48826022076853,-44.9979108302234,0.44005919117349));
#590=CARTESIAN_POINT('',(-1.51650210055776,-44.9988571732055,0.325637489858433));
#591=CARTESIAN_POINT('',(-1.533050425136,-44.9994188062895,0.233583384835582));
#592=CARTESIAN_POINT('',(-1.54327923126279,-44.9997687863045,0.151674706553343));
#593=CARTESIAN_POINT('',(-1.54885116646513,-44.9999604069844,0.0740404666209457));
#594=CARTESIAN_POINT('',(-1.5500001026622,-45.0000000101483,0.0234681003471927));
#595=CARTESIAN_POINT('',(-1.55,-44.9999999999992,8.43120080175341E-9));
#596=CARTESIAN_POINT('',(46.,40.,-6.00076931582203E-15));
#597=AXIS2_PLACEMENT_3D('',#598,#599,#600);
#598=CARTESIAN_POINT('',(46.,0.,-8.45006291411674E-15));
#599=DIRECTION('',(1.,0.,-1.83697019872103E-16));
#600=DIRECTION('',(1.12481983699639E-32,1.,6.12323399573677E-17));
#601=CARTESIAN_POINT('',(1.55,40.,-2.73402397909647E-15));
#602=CARTESIAN_POINT('',(-1.55,40.,-4.74550634669599E-17));
#603=CARTESIAN_POINT('',(-1.55,40.,-2.59165878869559E-15));
#604=CARTESIAN_POINT('',(-1.55000001232969,40.0000000020642,-0.00940688615680994));
#605=CARTESIAN_POINT('',(-1.54982857458495,39.9999933559788,-0.0282360622229079));
#606=CARTESIAN_POINT('',(-1.54905617114488,39.9999634337112,-0.0564966291267515));
#607=CARTESIAN_POINT('',(-1.54776364990835,39.9999133939523,-0.0848342588102309));
#608=CARTESIAN_POINT('',(-1.54594468627556,39.9998430439487,-0.113255684901554));
#609=CARTESIAN_POINT('',(-1.54349182546337,39.9997483050767,-0.14297937930322));
#610=CARTESIAN_POINT('',(-1.54019989785244,39.9996213841902,-0.175140872833453));
#611=CARTESIAN_POINT('',(-1.53516838106647,39.9994278708017,-0.215490124612214));
#612=CARTESIAN_POINT('',(-1.52786072756951,39.999147876357,-0.262889475329418));
#613=CARTESIAN_POINT('',(-1.51773936835461,39.9987623795472,-0.316162100281924));
#614=CARTESIAN_POINT('',(-1.50687647502648,39.99835165119,-0.364079427939497));
#615=CARTESIAN_POINT('',(-1.49617032891215,39.9979498807577,-0.405493391736102));
#616=CARTESIAN_POINT('',(-1.48655811303895,39.9975914850228,-0.439342636490283));
#617=CARTESIAN_POINT('',(-1.47682518010008,39.9972309169271,-0.47098860410623));
#618=CARTESIAN_POINT('',(-1.46659462244199,39.9968544031372,-0.501957131082284));
#619=CARTESIAN_POINT('',(-1.45535340230813,39.9964436765344,-0.533706573972854));
#620=CARTESIAN_POINT('',(-1.44266285743469,39.9959837482337,-0.56716507750125));
#621=CARTESIAN_POINT('',(-1.42838695712632,39.9954711468015,-0.602265113025317));
#622=CARTESIAN_POINT('',(-1.41139721856797,39.9948675512038,-0.641186555251445));
#623=CARTESIAN_POINT('',(-1.39075255259964,39.9941434967267,-0.685005580298915));
#624=CARTESIAN_POINT('',(-1.36159955027443,39.9931378431086,-0.741798088604996));
#625=CARTESIAN_POINT('',(-1.32345725083296,39.9918536346113,-0.808380919616446));
#626=CARTESIAN_POINT('',(-1.27572991993081,39.9903006959859,-0.881821624119753));
#627=CARTESIAN_POINT('',(-1.2287528382389,39.9888310478751,-0.945819416056309));
#628=CARTESIAN_POINT('',(-1.18547948366379,39.9875278620016,-0.999141055321845));
#629=CARTESIAN_POINT('',(-1.14909923100502,39.9864667201211,-1.04066003684689));
#630=CARTESIAN_POINT('',(-1.11454759886322,39.9854891807628,-1.07752142047896));
#631=CARTESIAN_POINT('',(-1.07989758216268,39.9845377816634,-1.11226527187935));
#632=CARTESIAN_POINT('',(-1.04242733901502,39.9835420630255,-1.14751704076731));
#633=CARTESIAN_POINT('',(-0.999235516919873,39.9824368681117,-1.1854351749088));
#634=CARTESIAN_POINT('',(-0.949349043742246,39.9812179352596,-1.22588868009514));
#635=CARTESIAN_POINT('',(-0.882245501571953,39.979669031156,-1.27555356916216));
#636=CARTESIAN_POINT('',(-0.798964282196904,39.9779025934416,-1.32982698798036));
#637=CARTESIAN_POINT('',(-0.699769307580527,39.9760399596565,-1.38459273510551));
#638=CARTESIAN_POINT('',(-0.609683105902572,39.974576375907,-1.42606440358322));
#639=CARTESIAN_POINT('',(-0.532281674323999,39.9734844452695,-1.45626973502259));
#640=CARTESIAN_POINT('',(-0.472302383336669,39.9727343497439,-1.47669090880023));
#641=CARTESIAN_POINT('',(-0.418789096059145,39.972141217733,-1.49264510091355));
#642=CARTESIAN_POINT('',(-0.367478856128203,39.9716358096671,-1.50611544473988));
#643=CARTESIAN_POINT('',(-0.310476915040298,39.9711471529049,-1.51902972606684));
#644=CARTESIAN_POINT('',(-0.246051337407251,39.9706949558853,-1.53087722921626));
#645=CARTESIAN_POINT('',(-0.181756329026423,39.970354671023,-1.53972841844407));
#646=CARTESIAN_POINT('',(-0.12688853061241,39.9701492997015,-1.5450467526292));
#647=CARTESIAN_POINT('',(-0.0814936781863994,39.970033641141,-1.54803494787155));
#648=CARTESIAN_POINT('',(-0.0408348391553455,39.9699714467342,-1.54963959141076));
#649=CARTESIAN_POINT('',(-0.013673288774999,39.9699575060953,-1.54999901965317));
#650=CARTESIAN_POINT('',(0.0133752505603004,39.9699574304782,-1.55000096960224));
#651=CARTESIAN_POINT('',(0.0404615847230914,39.9699711051964,-1.54964839734111));
#652=CARTESIAN_POINT('',(0.0810445266238452,39.9700327286309,-1.54805850303717));
#653=CARTESIAN_POINT('',(0.126435259700832,39.970147865504,-1.54508384310509));
#654=CARTESIAN_POINT('',(0.181293790157885,39.9703525769319,-1.53978274825494));
#655=CARTESIAN_POINT('',(0.245573493781417,39.9706920280506,-1.53095361209187));
#656=CARTESIAN_POINT('',(0.309979624935436,39.9711433040052,-1.51913092836467));
#657=CARTESIAN_POINT('',(0.366960603923794,39.9716310574926,-1.50624149348004));
#658=CARTESIAN_POINT('',(0.418248220515844,39.9721355643065,-1.49279640973944));
#659=CARTESIAN_POINT('',(0.471735588787867,39.9727276700026,-1.47687158024138));
#660=CARTESIAN_POINT('',(0.531686154815884,39.9734765359033,-1.45648660943045));
#661=CARTESIAN_POINT('',(0.609015214268502,39.9745662645284,-1.42634713171254));
#662=CARTESIAN_POINT('',(0.698956849049192,39.9760259112235,-1.38499622395347));
#663=CARTESIAN_POINT('',(0.797914751716249,39.9778818555033,-1.33044642448006));
#664=CARTESIAN_POINT('',(0.88090524446917,39.9796396720868,-1.27646869798493));
#665=CARTESIAN_POINT('',(0.94768449903931,39.9811785969734,-1.22716669723757));
#666=CARTESIAN_POINT('',(0.996824080874912,39.9823770300837,-1.18744177507635));
#667=CARTESIAN_POINT('',(1.0385246261047,39.9834411526364,-1.15100707239659));
#668=CARTESIAN_POINT('',(1.07632207528948,39.9844409932568,-1.11574734346534));
#669=CARTESIAN_POINT('',(1.11748121386825,39.9855675042161,-1.07474861424656));
#670=CARTESIAN_POINT('',(1.16659542174972,39.9869662539046,-1.0216527704233));
#671=CARTESIAN_POINT('',(1.22131426664196,39.9885988204292,-0.95588255458611));
#672=CARTESIAN_POINT('',(1.27193710706709,39.9901811090805,-0.887120558836423));
#673=CARTESIAN_POINT('',(1.31176446539165,39.9914724326173,-0.82647728803976));
#674=CARTESIAN_POINT('',(1.33860813496802,39.9923645505608,-0.781811274589153));
#675=CARTESIAN_POINT('',(1.3577173899835,39.993009576116,-0.747966711493456));
#676=CARTESIAN_POINT('',(1.3759269745792,39.99363135322,-0.714078290357979));
#677=CARTESIAN_POINT('',(1.39864394103535,39.9944180858677,-0.668944760271161));
#678=CARTESIAN_POINT('',(1.42710444126625,39.9954223779349,-0.60653899608498));
#679=CARTESIAN_POINT('',(1.454635884462,39.9964152390665,-0.537170319583117));
#680=CARTESIAN_POINT('',(1.47672479278656,39.9972262751696,-0.472204983399712));
#681=CARTESIAN_POINT('',(1.49115252417145,39.9977623630029,-0.423731578885229));
#682=CARTESIAN_POINT('',(1.50114951803307,39.9981365570477,-0.386525619684997));
#683=CARTESIAN_POINT('',(1.51036779088885,39.9984834688232,-0.349104727338581));
#684=CARTESIAN_POINT('',(1.52115278985059,39.9988919699799,-0.29965030635457));
#685=CARTESIAN_POINT('',(1.53234941809142,39.9993194469655,-0.236772352741524));
#686=CARTESIAN_POINT('',(1.54098545974096,39.9996515091597,-0.17110553244157));
#687=CARTESIAN_POINT('',(1.54600623146718,39.9998453950698,-0.114743697472221));
#688=CARTESIAN_POINT('',(1.54856456402009,39.9999443918515,-0.0702165721804338));
#689=CARTESIAN_POINT('',(1.54975649601672,39.9999905615286,-0.0339504690612387));
#690=CARTESIAN_POINT('',(1.55000002585017,40.0000000043378,-0.010928074908038));
#691=CARTESIAN_POINT('',(1.55,40.,-7.56437559933472E-15));
#692=CARTESIAN_POINT('',(-1.55,40.,2.49674866176167E-15));
#693=CARTESIAN_POINT('',(-1.55000001232969,40.0000000020642,0.00940688615681129));
#694=CARTESIAN_POINT('',(-1.54982857458495,39.9999933559788,0.0282360622229239));
#695=CARTESIAN_POINT('',(-1.54905617114488,39.9999634337112,0.0564966291267651));
#696=CARTESIAN_POINT('',(-1.54776364990835,39.9999133939523,0.0848342588102423));
#697=CARTESIAN_POINT('',(-1.54594468627556,39.9998430439488,0.113255684901556));
#698=CARTESIAN_POINT('',(-1.54349182546337,39.9997483050766,0.142979379303227));
#699=CARTESIAN_POINT('',(-1.54019989785244,39.9996213841902,0.175140872833454));
#700=CARTESIAN_POINT('',(-1.53516838106648,39.9994278708017,0.215490124612196));
#701=CARTESIAN_POINT('',(-1.52786072756952,39.999147876357,0.262889475329377));
#702=CARTESIAN_POINT('',(-1.51773936835462,39.9987623795472,0.31616210028187));
#703=CARTESIAN_POINT('',(-1.5068764750265,39.99835165119,0.364079427939441));
#704=CARTESIAN_POINT('',(-1.49617032891216,39.9979498807577,0.405493391736057));
#705=CARTESIAN_POINT('',(-1.48655811303897,39.9975914850228,0.439342636490244));
#706=CARTESIAN_POINT('',(-1.47682518010009,39.9972309169271,0.470988604106197));
#707=CARTESIAN_POINT('',(-1.466594622442,39.9968544031373,0.501957131082258));
#708=CARTESIAN_POINT('',(-1.45535340230813,39.9964436765344,0.533706573972841));
#709=CARTESIAN_POINT('',(-1.4426628574347,39.9959837482337,0.567165077501249));
#710=CARTESIAN_POINT('',(-1.42838695712632,39.9954711468015,0.602265113025324));
#711=CARTESIAN_POINT('',(-1.41139721856797,39.9948675512039,0.641186555251453));
#712=CARTESIAN_POINT('',(-1.39075255259963,39.9941434967267,0.685005580298927));
#713=CARTESIAN_POINT('',(-1.36159955027443,39.9931378431086,0.74179808860501));
#714=CARTESIAN_POINT('',(-1.32345725083296,39.9918536346113,0.808380919616452));
#715=CARTESIAN_POINT('',(-1.2757299199308,39.9903006959859,0.881821624119753));
#716=CARTESIAN_POINT('',(-1.2287528382389,39.9888310478751,0.945819416056314));
#717=CARTESIAN_POINT('',(-1.18547948366379,39.9875278620016,0.999141055321854));
#718=CARTESIAN_POINT('',(-1.14909923100502,39.9864667201211,1.0406600368469));
#719=CARTESIAN_POINT('',(-1.11454759886323,39.9854891807628,1.07752142047896));
#720=CARTESIAN_POINT('',(-1.07989758216268,39.9845377816634,1.11226527187935));
#721=CARTESIAN_POINT('',(-1.04242733901503,39.9835420630255,1.1475170407673));
#722=CARTESIAN_POINT('',(-0.999235516919873,39.9824368681118,1.18543517490879));
#723=CARTESIAN_POINT('',(-0.949349043742255,39.9812179352595,1.22588868009515));
#724=CARTESIAN_POINT('',(-0.882245501571951,39.979669031156,1.27555356916216));
#725=CARTESIAN_POINT('',(-0.79896428219691,39.9779025934415,1.32982698798037));
#726=CARTESIAN_POINT('',(-0.699769307580528,39.9760399596566,1.38459273510552));
#727=CARTESIAN_POINT('',(-0.609683105902564,39.974576375907,1.42606440358323));
#728=CARTESIAN_POINT('',(-0.532281674323986,39.9734844452694,1.45626973502259));
#729=CARTESIAN_POINT('',(-0.472302383336659,39.9727343497439,1.47669090880024));
#730=CARTESIAN_POINT('',(-0.418789096059136,39.972141217733,1.49264510091356));
#731=CARTESIAN_POINT('',(-0.367478856128194,39.9716358096671,1.50611544473988));
#732=CARTESIAN_POINT('',(-0.310476915040296,39.9711471529049,1.51902972606686));
#733=CARTESIAN_POINT('',(-0.246051337407249,39.9706949558852,1.53087722921626));
#734=CARTESIAN_POINT('',(-0.181756329026424,39.970354671023,1.53972841844408));
#735=CARTESIAN_POINT('',(-0.126888530612414,39.9701492997015,1.54504675262917));
#736=CARTESIAN_POINT('',(-0.0814936781863974,39.970033641141,1.54803494787162));
#737=CARTESIAN_POINT('',(-0.040834839155369,39.9699714467339,1.54963959141052));
#738=CARTESIAN_POINT('',(-0.0136732887749574,39.9699575060958,1.54999901965369));
#739=CARTESIAN_POINT('',(0.0133752505602551,39.9699574304777,1.55000096960174));
#740=CARTESIAN_POINT('',(0.0404615847231107,39.9699711051966,1.54964839734134));
#741=CARTESIAN_POINT('',(0.081044526623837,39.9700327286308,1.54805850303712));
#742=CARTESIAN_POINT('',(0.126435259700833,39.970147865504,1.54508384310512));
#743=CARTESIAN_POINT('',(0.181293790157878,39.9703525769319,1.53978274825492));
#744=CARTESIAN_POINT('',(0.245573493781414,39.9706920280506,1.53095361209189));
#745=CARTESIAN_POINT('',(0.309979624935427,39.9711433040052,1.51913092836466));
#746=CARTESIAN_POINT('',(0.366960603923782,39.9716310574926,1.50624149348004));
#747=CARTESIAN_POINT('',(0.418248220515836,39.9721355643065,1.49279640973945));
#748=CARTESIAN_POINT('',(0.471735588787851,39.9727276700026,1.47687158024138));
#749=CARTESIAN_POINT('',(0.531686154815876,39.9734765359033,1.45648660943047));
#750=CARTESIAN_POINT('',(0.609015214268492,39.9745662645284,1.42634713171255));
#751=CARTESIAN_POINT('',(0.698956849049184,39.9760259112235,1.38499622395347));
#752=CARTESIAN_POINT('',(0.797914751716238,39.9778818555033,1.33044642448007));
#753=CARTESIAN_POINT('',(0.880905244469162,39.9796396720868,1.27646869798494));
#754=CARTESIAN_POINT('',(0.947684499039302,39.9811785969734,1.22716669723758));
#755=CARTESIAN_POINT('',(0.996824080874907,39.9823770300837,1.18744177507635));
#756=CARTESIAN_POINT('',(1.0385246261047,39.9834411526364,1.15100707239659));
#757=CARTESIAN_POINT('',(1.07632207528948,39.9844409932568,1.11574734346535));
#758=CARTESIAN_POINT('',(1.11748121386825,39.9855675042161,1.07474861424655));
#759=CARTESIAN_POINT('',(1.16659542174973,39.9869662539046,1.0216527704233));
#760=CARTESIAN_POINT('',(1.22131426664196,39.9885988204292,0.955882554586112));
#761=CARTESIAN_POINT('',(1.2719371070671,39.9901811090804,0.887120558836424));
#762=CARTESIAN_POINT('',(1.31176446539165,39.9914724326173,0.826477288039754));
#763=CARTESIAN_POINT('',(1.33860813496803,39.9923645505608,0.781811274589145));
#764=CARTESIAN_POINT('',(1.3577173899835,39.993009576116,0.74796671149346));
#765=CARTESIAN_POINT('',(1.3759269745792,39.99363135322,0.714078290357981));
#766=CARTESIAN_POINT('',(1.39864394103535,39.9944180858677,0.668944760271162));
#767=CARTESIAN_POINT('',(1.42710444126626,39.9954223779349,0.606538996084975));
#768=CARTESIAN_POINT('',(1.45463588446201,39.9964152390665,0.537170319583104));
#769=CARTESIAN_POINT('',(1.47672479278657,39.9972262751696,0.472204983399686));
#770=CARTESIAN_POINT('',(1.49115252417146,39.9977623630029,0.423731578885217));
#771=CARTESIAN_POINT('',(1.50114951803307,39.9981365570477,0.386525619684998));
#772=CARTESIAN_POINT('',(1.51036779088885,39.9984834688232,0.349104727338588));
#773=CARTESIAN_POINT('',(1.52115278985059,39.9988919699799,0.299650306354574));
#774=CARTESIAN_POINT('',(1.53234941809142,39.9993194469655,0.236772352741521));
#775=CARTESIAN_POINT('',(1.54098545974096,39.9996515091596,0.17110553244158));
#776=CARTESIAN_POINT('',(1.54600623146718,39.9998453950698,0.114743697472236));
#777=CARTESIAN_POINT('',(1.54856456402009,39.9999443918515,0.0702165721804542));
#778=CARTESIAN_POINT('',(1.54975649601672,39.9999905615286,0.0339504690612484));
#779=CARTESIAN_POINT('',(1.55000002585017,40.0000000043378,0.0109280749080382));
#780=CARTESIAN_POINT('',(1.55,40.,2.15257952412787E-15));
#781=CARTESIAN_POINT('',(-5.,40.,3.36777869765522E-15));
#782=AXIS2_PLACEMENT_3D('',#783,#784,#785);
#783=CARTESIAN_POINT('',(-5.,0.,9.18485099360515E-16));
#784=DIRECTION('',(1.,0.,-1.83697019872103E-16));
#785=DIRECTION('',(1.12481983699639E-32,1.,6.12323399573677E-17));
#786=CARTESIAN_POINT('',(-1.55,3.79640507735679E-16,40.0000000026996));
#787=CARTESIAN_POINT('',(-1.55,4.6950047669081E-9,40.0000000013501));
#788=CARTESIAN_POINT('',(-1.54999954955936,-0.0543086933450357,39.9999999655917));
#789=CARTESIAN_POINT('',(-1.54437667057992,-0.161217155521923,39.9997814936047));
#790=CARTESIAN_POINT('',(-1.51982088921333,-0.317318104475347,39.9988378173383));
#791=CARTESIAN_POINT('',(-1.4811445764939,-0.4649759885895,39.9973826598334));
#792=CARTESIAN_POINT('',(-1.42974511191858,-0.604563849448484,39.9955071372388));
#793=CARTESIAN_POINT('',(-1.36563624606023,-0.738179960777135,39.9932595967553));
#794=CARTESIAN_POINT('',(-1.2873498114595,-0.867831765938296,39.9906529256177));
#795=CARTESIAN_POINT('',(-1.19185471518036,-0.995433123046922,39.987678128179));
#796=CARTESIAN_POINT('',(-1.07744451244147,-1.11878981475961,39.9844117928542));
#797=CARTESIAN_POINT('',(-0.941929088456049,-1.23549502180392,39.980966668465));
#798=CARTESIAN_POINT('',(-0.787606971491608,-1.33948631538753,39.9776046194684));
#799=CARTESIAN_POINT('',(-0.619831110055028,-1.42480843678838,39.9746388984742));
#800=CARTESIAN_POINT('',(-0.44778014346763,-1.48749304601449,39.9723430641981));
#801=CARTESIAN_POINT('',(-0.279190369085349,-1.52772450005315,39.9708185100461));
#802=CARTESIAN_POINT('',(-0.130293514110816,-1.54659917730026,39.9700894653038));
#803=CARTESIAN_POINT('',(-0.0221872605713616,-1.5505877378153,39.9699346760652));
#804=CARTESIAN_POINT('',(0.0859195534088377,-1.54892103988677,39.969999289048));
#805=CARTESIAN_POINT('',(0.209699296634896,-1.53860674682809,39.970399459604));
#806=CARTESIAN_POINT('',(0.372825112293297,-1.50761052057422,39.9715851793631));
#807=CARTESIAN_POINT('',(0.53859708652634,-1.45706991562508,39.9734685202291));
#808=CARTESIAN_POINT('',(0.704104056811469,-1.38492909104849,39.9760462930409));
#809=CARTESIAN_POINT('',(0.85991508689122,-1.29371020868065,39.979114581444));
#810=CARTESIAN_POINT('',(0.998427142422675,-1.18955128780912,39.9823571245981));
#811=CARTESIAN_POINT('',(1.11960089879923,-1.07600274431701,39.9855822754151));
#812=CARTESIAN_POINT('',(1.23298801312643,-0.944940258474164,39.9889198854823));
#813=CARTESIAN_POINT('',(1.33470604929698,-0.795640582029547,39.9921973943089));
#814=CARTESIAN_POINT('',(1.41912591042681,-0.631849329323299,39.9951209897084));
#815=CARTESIAN_POINT('',(1.47492021466964,-0.483939327781858,39.997153446144));
#816=CARTESIAN_POINT('',(1.50950755667889,-0.357642142027625,39.9984488392926));
#817=CARTESIAN_POINT('',(1.53148677507118,-0.247243968475286,39.9992855544075));
#818=CARTESIAN_POINT('',(1.54632245358992,-0.129381093510813,39.9998572224757));
#819=CARTESIAN_POINT('',(1.55038335455149,-0.0362283204459953,40.0000148543576));
#820=CARTESIAN_POINT('',(1.54942138515081,0.0767732792454939,39.9999775925355));
#821=CARTESIAN_POINT('',(1.54027409958294,0.199667520699445,39.9996224200473));
#822=CARTESIAN_POINT('',(1.51039546732262,0.359455383525454,39.9984793800491));
#823=CARTESIAN_POINT('',(1.46724863826727,0.50691419380089,39.9968693907306));
#824=CARTESIAN_POINT('',(1.41150419808085,0.646511454948993,39.9948559925221));
#825=CARTESIAN_POINT('',(1.34102731330977,0.782326757930989,39.9924224533574));
#826=CARTESIAN_POINT('',(1.25694268526288,0.911274345091128,39.9896826541862));
#827=CARTESIAN_POINT('',(1.15993228085643,1.03207361269398,39.9867399400849));
#828=CARTESIAN_POINT('',(1.04783073589108,1.1460261782287,39.9836300242335));
#829=CARTESIAN_POINT('',(0.919740351005133,1.25146838874747,39.9804602791359));
#830=CARTESIAN_POINT('',(0.776212871961714,1.34537413245296,39.9773995552782));
#831=CARTESIAN_POINT('',(0.621386038078987,1.42354053563549,39.9746811282111));
#832=CARTESIAN_POINT('',(0.446318492144777,1.48852151500665,39.9723077938965));
#833=CARTESIAN_POINT('',(0.242766380234987,1.53647665377283,39.9704847116136));
#834=CARTESIAN_POINT('',(0.0880301983750329,1.54969068572038,39.9699694571179));
#835=CARTESIAN_POINT('',(-0.0709396403790962,1.55027447495247,39.9699468239823));
#836=CARTESIAN_POINT('',(-0.212428704460061,1.5400240818541,39.9703464449716));
#837=CARTESIAN_POINT('',(-0.400325383796213,1.50083999326897,39.9718424942713));
#838=CARTESIAN_POINT('',(-0.565189826626952,1.44645006789859,39.973853563224));
#839=CARTESIAN_POINT('',(-0.718317258803671,1.3770579315558,39.9763152883565));
#840=CARTESIAN_POINT('',(-0.864534847134392,1.29024058946493,39.9792230705829));
#841=CARTESIAN_POINT('',(-1.01283273689305,1.17857215227034,39.9826966086582));
#842=CARTESIAN_POINT('',(-1.16466892004759,1.03158624939202,39.9868204801135));
#843=CARTESIAN_POINT('',(-1.30726541171695,0.844627304459756,39.9912578809872));
#844=CARTESIAN_POINT('',(-1.41198506021188,0.65041897151342,39.9948616684814));
#845=CARTESIAN_POINT('',(-1.47435971539468,0.485648166736485,39.9971327016152));
#846=CARTESIAN_POINT('',(-1.50911908583202,0.359293325594466,39.9984341515285));
#847=CARTESIAN_POINT('',(-1.53102570977931,0.249859972434651,39.9992679305074));
#848=CARTESIAN_POINT('',(-1.54617096107147,0.13145794194543,39.9998512961079));
#849=CARTESIAN_POINT('',(-1.55000038647208,0.0465961457664062,40.0000000320304));
#850=CARTESIAN_POINT('',(-1.55,4.6950047669081E-9,40.0000000013501));
#851=CARTESIAN_POINT('',(-1.55,3.79640507735679E-16,-39.9999999999675));
#852=CARTESIAN_POINT('',(-1.55,-2.41607428508317E-11,-39.9999999999838));
#853=CARTESIAN_POINT('',(-1.54999969259929,0.0405787418066553,-39.9999999822241));
#854=CARTESIAN_POINT('',(-1.5462742398314,0.135440150251945,-39.9998554587257));
#855=CARTESIAN_POINT('',(-1.52674821980293,0.283539557820518,-39.9991022619735));
#856=CARTESIAN_POINT('',(-1.4885997637735,0.442073815016124,-39.9976589989014));
#857=CARTESIAN_POINT('',(-1.43225519454568,0.600745559122946,-39.9955928402524));
#858=CARTESIAN_POINT('',(-1.35415963100579,0.76183603004605,-39.9928558437805));
#859=CARTESIAN_POINT('',(-1.24866419425991,0.925774179725975,-39.9893970781617));
#860=CARTESIAN_POINT('',(-1.12279741143895,1.07446098381155,-39.9856475168095));
#861=CARTESIAN_POINT('',(-0.98144970532972,1.20430298854078,-39.9819222580502));
#862=CARTESIAN_POINT('',(-0.83156781788958,1.31254843930806,-39.9785016555168));
#863=CARTESIAN_POINT('',(-0.667963472279308,1.40284037429908,-39.9754194250671));
#864=CARTESIAN_POINT('',(-0.498817169264177,1.471166126836,-39.9729499597186));
#865=CARTESIAN_POINT('',(-0.329945760211256,1.51767265561003,-39.9712031736697));
#866=CARTESIAN_POINT('',(-0.164193734590905,1.54422179677333,-39.9701821441974));
#867=CARTESIAN_POINT('',(-0.0541965481662217,1.54999616000456,-39.9699576169884));
#868=CARTESIAN_POINT('',(0.0539028736072607,1.55000382957174,-39.9699573195717));
#869=CARTESIAN_POINT('',(0.163811543977614,1.54425761759441,-39.9701807517574));
#870=CARTESIAN_POINT('',(0.329453539534885,1.51777702407505,-39.9711991911705));
#871=CARTESIAN_POINT('',(0.498262479634626,1.47135009040541,-39.9729431443791));
#872=CARTESIAN_POINT('',(0.667350244843004,1.40312803661934,-39.9754092530517));
#873=CARTESIAN_POINT('',(0.830209046194008,1.3133467497742,-39.978474825611));
#874=CARTESIAN_POINT('',(0.978182050295003,1.20677295948733,-39.9818453025673));
#875=CARTESIAN_POINT('',(1.10358119529136,1.09243367023136,-39.9851359837607));
#876=CARTESIAN_POINT('',(1.2067195412028,0.976446567549745,-39.9881342872412));
#877=CARTESIAN_POINT('',(1.29421898695464,0.857099687115796,-39.990877889846));
#878=CARTESIAN_POINT('',(1.373833650058,0.723804048987863,-39.9935365336055));
#879=CARTESIAN_POINT('',(1.44670529496735,0.566449360848661,-39.9961113066354));
#880=CARTESIAN_POINT('',(1.5049327770434,0.387758561227515,-39.9982695159739));
#881=CARTESIAN_POINT('',(1.54165498147614,0.196135330090648,-39.9996753854952));
#882=CARTESIAN_POINT('',(1.54996908407115,0.0658524846537797,-39.9999988020905));
#883=CARTESIAN_POINT('',(1.55003045427311,-0.0638976484963838,-40.0000011800895));
#884=CARTESIAN_POINT('',(1.54193549167735,-0.193648945725933,-39.9996863076528));
#885=CARTESIAN_POINT('',(1.50732656768922,-0.376155252128851,-39.998360800595));
#886=CARTESIAN_POINT('',(1.45678599998349,-0.536965595437969,-39.9964839425545));
#887=CARTESIAN_POINT('',(1.40022481172818,-0.669043603461257,-39.9944625543153));
#888=CARTESIAN_POINT('',(1.33951058328232,-0.783093141018992,-39.9923807693389));
#889=CARTESIAN_POINT('',(1.27019937682337,-0.89162335420135,-39.9901111711597));
#890=CARTESIAN_POINT('',(1.18551205209598,-1.00208877885146,-39.987498049585));
#891=CARTESIAN_POINT('',(1.08126674476429,-1.11437711266443,-39.9845259874741));
#892=CARTESIAN_POINT('',(0.958172268794605,-1.22229363439996,-39.9813664630485));
#893=CARTESIAN_POINT('',(0.816898549895918,-1.32112487616185,-39.9782122962179));
#894=CARTESIAN_POINT('',(0.662141821403255,-1.40521504505879,-39.9753333788163));
#895=CARTESIAN_POINT('',(0.498343770060085,-1.47121358410938,-39.972947930948));
#896=CARTESIAN_POINT('',(0.331273139189159,-1.5173892253263,-39.9712139837055));
#897=CARTESIAN_POINT('',(0.165441675566425,-1.54409045708232,-39.9701872366782));
#898=CARTESIAN_POINT('',(0.0550085993981092,-1.54997470746971,-39.969958448858));
#899=CARTESIAN_POINT('',(-0.0530908886396131,-1.55002484804757,-39.96995650449));
#900=CARTESIAN_POINT('',(-0.16296543452913,-1.54432374538619,-39.9701781681847));
#901=CARTESIAN_POINT('',(-0.32812613351796,-1.51805880252312,-39.9711884393922));
#902=CARTESIAN_POINT('',(-0.496813259878828,-1.47183182414238,-39.9729253012152));
#903=CARTESIAN_POINT('',(-0.665814600498112,-1.4038506229177,-39.9753837141065));
#904=CARTESIAN_POINT('',(-0.828686689111851,-1.31430541394306,-39.9784431406988));
#905=CARTESIAN_POINT('',(-0.976757570242904,-1.20792620917973,-39.9818103220906));
#906=CARTESIAN_POINT('',(-1.10229199282598,-1.09373456406829,-39.9851002933935));
#907=CARTESIAN_POINT('',(-1.20556725508577,-0.977868723278069,-39.9880994250126));
#908=CARTESIAN_POINT('',(-1.29647909933525,-0.854174252346486,-39.9909475790826));
#909=CARTESIAN_POINT('',(-1.37749767097227,-0.717237889449001,-39.9936620182423));
#910=CARTESIAN_POINT('',(-1.44699954232602,-0.564015090585469,-39.9961258349772));
#911=CARTESIAN_POINT('',(-1.49439412613384,-0.419783811594132,-39.9978783305468));
#912=CARTESIAN_POINT('',(-1.52380570026049,-0.291259116605923,-39.9989917400384));
#913=CARTESIAN_POINT('',(-1.53994618189432,-0.185620581761351,-39.9996111504212));
#914=CARTESIAN_POINT('',(-1.54829280755831,-0.0895229704314823,-39.9999337910725));
#915=CARTESIAN_POINT('',(-1.55000022184086,-0.0292843276134417,-40.0000000128003));
#916=CARTESIAN_POINT('',(-1.55,-2.41607428508317E-11,-39.9999999999838));
#917=CARTESIAN_POINT('',(-1.55,-39.9999999999675,-2.8289341060284E-15));
#918=CARTESIAN_POINT('',(-1.55,-39.9999999999858,8.70933410807018E-9));
#919=CARTESIAN_POINT('',(-1.54999969045145,-39.999999976938,-0.0405761877701103));
#920=CARTESIAN_POINT('',(-1.54680893561232,-39.9998761609512,-0.121818002437054));
#921=CARTESIAN_POINT('',(-1.53244277216119,-39.9993220402127,-0.243103219094224));
#922=CARTESIAN_POINT('',(-1.50853617825772,-39.9984113841574,-0.363058840784453));
#923=CARTESIAN_POINT('',(-1.47524339609922,-39.9971670081851,-0.480767126331267));
#924=CARTESIAN_POINT('',(-1.4262719649247,-39.9953830900862,-0.613091375148006));
#925=CARTESIAN_POINT('',(-1.35414225951185,-39.9928552727255,-0.761865777240337));
#926=CARTESIAN_POINT('',(-1.24864385057534,-39.9893964399244,-0.925801091403424));
#927=CARTESIAN_POINT('',(-1.12278372472154,-39.9856471455504,-1.07447418992697));
#928=CARTESIAN_POINT('',(-0.981445179096055,-39.981922153366,-1.20430630914614));
#929=CARTESIAN_POINT('',(-0.831566682177835,-39.978501634033,-1.31254907157226));
#930=CARTESIAN_POINT('',(-0.667963316270662,-39.9754194223588,-1.40284045145085));
#931=CARTESIAN_POINT('',(-0.498817101295888,-39.9729499590252,-1.47116614499455));
#932=CARTESIAN_POINT('',(-0.329945781222097,-39.9712031738631,-1.51767265057682));
#933=CARTESIAN_POINT('',(-0.164193738657509,-39.9701821441908,-1.54422179689353));
#934=CARTESIAN_POINT('',(-0.0541965500376599,-39.9699576170002,-1.54999615982041));
#935=CARTESIAN_POINT('',(0.0539028710962603,-39.9699573195599,-1.55000382975509));
#936=CARTESIAN_POINT('',(0.163811536844567,-39.9701807517347,-1.54425761823972));
#937=CARTESIAN_POINT('',(0.329453529865817,-39.9711991910976,-1.51777702595845));
#938=CARTESIAN_POINT('',(0.498262469360897,-39.9729431442477,-1.47135009396469));
#939=CARTESIAN_POINT('',(0.667350238232596,-39.975409252932,-1.40312804006744));
#940=CARTESIAN_POINT('',(0.830209046216079,-39.9784748256024,-1.31334675014532));
#941=CARTESIAN_POINT('',(0.978182050775175,-39.9818453025826,-1.20677295895467));
#942=CARTESIAN_POINT('',(1.10358118454638,-39.9851359834813,-1.09243367977907));
#943=CARTESIAN_POINT('',(1.2067195256214,-39.9881342867719,-0.976446586393265));
#944=CARTESIAN_POINT('',(1.29421897976612,-39.9908778895992,-0.857099699919076));
#945=CARTESIAN_POINT('',(1.37383365056725,-39.993536533622,-0.72380404878401));
#946=CARTESIAN_POINT('',(1.44670529734311,-39.9961113067234,-0.566449353536024));
#947=CARTESIAN_POINT('',(1.50493277703406,-39.9982695159737,-0.387758561319661));
#948=CARTESIAN_POINT('',(1.54165498146964,-39.9996753854945,-0.196135329945577));
#949=CARTESIAN_POINT('',(1.54996908406692,-39.9999988020908,-0.065852485166913));
#950=CARTESIAN_POINT('',(1.55003045427711,-40.0000011800891,0.0638976485191702));
#951=CARTESIAN_POINT('',(1.54193549176916,-39.9996863076566,0.193648944395513));
#952=CARTESIAN_POINT('',(1.50732657082215,-39.9983608007147,0.376155236075509));
#953=CARTESIAN_POINT('',(1.45678600374902,-39.9964839426928,0.536965586098644));
#954=CARTESIAN_POINT('',(1.40022480600681,-39.9944625541015,0.669043619478229));
#955=CARTESIAN_POINT('',(1.33951056203723,-39.9923807686226,0.783093177628224));
#956=CARTESIAN_POINT('',(1.27019934607854,-39.9901111701867,0.891623397387328));
#957=CARTESIAN_POINT('',(1.18551203212417,-39.9874980489944,1.00208880199291));
#958=CARTESIAN_POINT('',(1.08126673620981,-39.9845259872699,1.11437711900572));
#959=CARTESIAN_POINT('',(0.958172281715276,-39.9813664633793,1.22229362329982));
#960=CARTESIAN_POINT('',(0.816898568699726,-39.9782122965905,1.32112486513706));
#961=CARTESIAN_POINT('',(0.662141827966197,-39.9753333788971,1.40521504293455));
#962=CARTESIAN_POINT('',(0.498343763135568,-39.972947930851,1.47121358674841));
#963=CARTESIAN_POINT('',(0.331273130166841,-39.9712139836388,1.51738922706372));
#964=CARTESIAN_POINT('',(0.165441671171839,-39.9701872366676,1.54409045735265));
#965=CARTESIAN_POINT('',(0.0550085981680225,-39.9699584488571,1.54997470750088));
#966=CARTESIAN_POINT('',(-0.0530908886335998,-39.9699565044909,1.55002484801753));
#967=CARTESIAN_POINT('',(-0.162965430889099,-39.9701781681785,1.54432374554745));
#968=CARTESIAN_POINT('',(-0.328126124745863,-39.9711884393284,1.51805880418301));
#969=CARTESIAN_POINT('',(-0.496813249097284,-39.9729253010793,1.47183182781641));
#970=CARTESIAN_POINT('',(-0.66581459302205,-39.9753837139718,1.40385062679231));
#971=CARTESIAN_POINT('',(-0.828686690558568,-39.9784431407167,1.31430541356401));
#972=CARTESIAN_POINT('',(-0.976757573706354,-39.9818103221807,1.20792620612963));
#973=CARTESIAN_POINT('',(-1.10229197740726,-39.9851002929936,1.09373457777376));
#974=CARTESIAN_POINT('',(-1.20556723040056,-39.9880994242625,0.977868753466637));
#975=CARTESIAN_POINT('',(-1.29647912278196,-39.9909475797978,0.854174225181648));
#976=CARTESIAN_POINT('',(-1.37749769422222,-39.9936620190919,0.717237830255299));
#977=CARTESIAN_POINT('',(-1.44699943963046,-39.9961258312455,0.564015352413577));
#978=CARTESIAN_POINT('',(-1.49439419915491,-39.9978783333183,0.419783596177046));
#979=CARTESIAN_POINT('',(-1.52380580417736,-39.9989917438218,0.291258572559862));
#980=CARTESIAN_POINT('',(-1.53994614291259,-39.9996111495213,0.185620751768123));
#981=CARTESIAN_POINT('',(-1.54829280119155,-39.9999337889856,0.0895234859866548));
#982=CARTESIAN_POINT('',(-1.55000022339872,-40.0000000166193,0.0292835262650787));
#983=CARTESIAN_POINT('',(-1.55,-39.9999999999858,8.70933410807018E-9));
ENDSEC;
END-ISO-10303-21;
